<?xml version="1.0" encoding="utf-8"?>
<!-- Generator: Adobe Illustrator 23.0.1, SVG Export Plug-In . SVG Version: 6.00 Build 0)  -->
<svg version="1.1" id="Layer_1" xmlns="http://www.w3.org/2000/svg" xmlns:xlink="http://www.w3.org/1999/xlink" x="0px" y="0px"
	 viewBox="0 0 841.9 434.2" style="enable-background:new 0 0 841.9 434.2;" xml:space="preserve">
<style type="text/css">
	.st0{fill:#74C2AB;}
	.st1{fill:#484545;}
</style>
<title>GirlsGoIT Main Logo</title>
<g>
	<path class="st0" d="M74.9,136.2c0,25.9,11.6,37.8,26.6,37.8c24.5,0,31.2-28.4,34.7-46.9c1.1-6.7,18.9-16.1,32.2-16.1
		c4.2,0,5.9,2.1,5.9,5.3c0,4.2-3.5,7.7-5.9,18.2c-2.4,10.9-5.6,34.3-6.3,44.5c-4.9,94.5-29.4,163.5-99.1,163.5
		c-34.3,0-63-22.8-63-54.3c0-36.8,30.5-54.3,56.3-54.3c8.4,0,12.9,1.4,12.9,5.3c0,2.1-1.4,3.9-4.6,5.6c-7.3,4.2-15,12.3-15,22
		c0,12.6,7,21.7,24.2,21.7c30.1,0,49.7-47.3,55.3-106.8c-8.4,13.6-24.5,34.6-56,34.6c-31.2,0-57.8-24.1-57.8-65.1
		C15.4,69.7,76,0,129.9,0c29,0,46.2,16.8,46.2,40.6c0,19.6-9.1,34.3-22.8,34.3c-9.1,0-16.8-5.9-16.8-15.4c0-16.1,14-17.5,14-28
		c0-6-3.9-9.1-11.2-9.1c-7.7,0-15.4,2.4-27.3,12.6C90.3,54.6,74.9,95.6,74.9,136.2z"/>
	<path class="st0" d="M179.9,204.8c0-22.4,11.6-45.1,11.6-57.8c0-6-2.1-6.6-2.1-11.2c0-7.7,18.6-13,38.8-13c7.7,0,11.9,3.1,11.9,9.1
		c0,14-11.2,36.1-11.2,59.2c0,9.1,5.3,14.4,11.6,14.4c5.9,0,8.8-2.8,13.3-7.4c2.4-2.5,3.8-3.5,5.9-3.5c2.7,0.1,4.8,2.2,4.9,4.9
		c0,3.9-2.1,6.6-5.6,11.2c-7.4,9.5-22.4,23.1-44.4,23.1C191.5,233.8,179.9,220.9,179.9,204.8z M226.5,56.7
		c12.6,0,19.6,8.1,19.6,18.6c0,14-12.6,29.1-25.9,29.1c-10.9,0-19.6-8.4-19.6-18.9C200.6,71.4,213.2,56.7,226.5,56.7z"/>
	<path class="st0" d="M296.8,224.7c0,6-2.5,7.4-7.7,7.4c-10.5,0-24.1,1.8-29.4,1.8c-4.6,0-7.4-1.8-7.4-7.7c0-13,14.7-60.2,14.7-79.1
		c0-6-2.5-6.6-2.5-11.2c0-7.7,18.9-13,39.2-13c7.7,0,11.9,3.1,11.9,9.1c0,5.6-2.1,15.1-2.1,15.1s9.5-22.8,30.8-22.8
		c9.8,0,16.1,5.9,16.1,16.4c0,13-8.4,27.6-22.8,27.6c-9.8,0-14.7-7-14.7-13.3c-2.1,0.7-6.7,5.3-11.9,15
		C304.9,182,296.8,211.1,296.8,224.7z"/>
	<path class="st0" d="M358.8,200.9c0-31.9,27-76.7,27-130.9c0-11.6-6-17.1-13.6-17.1c-3.1,0-4.9-1.4-4.9-4.2
		c0-7.3,18.5-18.9,38.5-18.9c18.2,0,29.8,9.8,29.8,27.3c0,29.4-28,100.5-28,134.1c0,9.1,4.9,14.4,11.2,14.4c6,0,8.8-2.8,13.3-7.4
		c2.5-2.5,3.9-3.5,6-3.5c2.7,0.1,4.8,2.2,4.9,4.9c0,3.9-2.1,6.6-5.6,11.2c-7.4,9.5-22,23.1-44.1,23.1
		C369.6,233.8,358.8,219.1,358.8,200.9z"/>
	<path class="st0" d="M459.9,199.2c0,8.8,3.1,14.7,9.5,14.7c4.9,0,7.7-3.1,7.7-9.5c0-20.6-34.6-23.8-34.6-50.1
		c0-22,22-33.2,48.3-33.2c25.5,0,37.1,9.8,37.1,24.1c0,9.5-4.9,17.9-16.5,17.9c-6.6,0-12.6-5.3-12.6-11.9c0-5.3,2.8-7.4,2.8-10.5
		c0-3.5-2.8-4.9-6.6-4.9c-4.5,0-10.1,4.9-10.1,11.6c0,20.6,38.5,23.4,38.5,49c0,22.8-18.2,38.1-49,38.1c-26.3,0-45.5-11.5-45.5-30.5
		c0-11.2,8-17.9,16.1-17.9C454.3,186.2,459.9,190.8,459.9,199.2z"/>
	<path class="st1" d="M267.1,351.7c0-3.8,1.2-6.5,5.5-6.5h60.2c2.9,0,4.3,1.4,4.3,3.8v74.6c0,5-1.7,7.4-6.2,7.4h-14.4
		c-5.3,0-7.7-1.2-9.6-5.3l-1.2-2.4c-11.8,5.8-26.9,10.3-46.3,10.3c-57.1,0-99.1-28.5-99.1-90.2c0-50.6,35.5-87.8,100.5-87.8
		c59.5,0,74.1,25.2,74.1,44.4c0,15.1-12,24.2-25.9,24.2c-12.7,0-23.5-9.1-23.5-23.5c0-4.6,1.3-9,3.6-13c-8.2-2.2-16.7-3.2-25.2-3.1
		c-42,0-59,27.6-59,60c0,33.3,17.5,57.3,56.9,57.3c14.9,0,26.4-3.1,35.7-7.7v-12.7c0-5.5-3.6-7.7-8.4-7.7h-16.3
		c-3.8,0-5.8-1.9-5.8-6.5V351.7z"/>
	<path class="st1" d="M427.3,300.6c51.6,0,72.4,31.4,72.4,66.7s-20.9,66.9-72.4,66.9c-51.8,0-72.2-31.7-72.2-66.9
		S375.5,300.6,427.3,300.6z M397.3,367.6c0,25.9,9.8,40.3,30,40.3c20.4,0,30.2-14.4,30.2-40.3c0-26.1-9.8-40.5-30.2-40.5
		C407.2,327,397.3,341.4,397.3,367.6L397.3,367.6z"/>
	<path class="st1" d="M651.1,404.3h2.2c5.3,0,6,1.2,6,4.3v17c0,4.6-1.2,5.5-6,5.5h-73.6c-4.6,0-6-1-6-5.5v-17c0-3.1,1-4.3,6-4.3h1.9
		c10.1,0,13.9-2.4,13.9-13.4v-92.6c0-11-3.8-13.4-13.9-13.4h-2.2c-4.8,0-5.8-1.2-5.8-4.3v-17c0-4.6,1.4-5.5,5.8-5.5h73.9
		c4.6,0,6,1,6,5.5v17c0,3.1-1,4.3-6,4.3h-2.4c-9.8,0-13.4,1.7-13.4,13.4v92.6C637.4,402.6,641,404.3,651.1,404.3z"/>
	<path class="st1" d="M686.6,258h142c8.9,0,10.5,0.5,11.3,11.3l1.9,36c0.2,4.1,0.5,5.8-4.6,5.8h-19c-4.1,0-5.5-1.2-6.2-5.3l-1.2-7.7
		c-1.7-11-7.4-11.3-30.7-11.3h-1.4v106.7c0.5,9.4,4.1,10.8,13.4,10.8h2.4c5,0,5.8,1.2,5.8,4.3v17c0,4.6-1.2,5.5-5.8,5.5h-73.8
		c-4.3,0-5.8-1-5.8-5.5v-17c0-3.1,1-4.3,5.8-4.3h2.2c9.8,0,13.7-2.4,13.7-13.4V286.7h-1.7c-23,0-28.8,0.2-30.5,11.3l-1.2,7.7
		c-0.7,4.1-2.4,5.3-6.2,5.3h-19.2c-4.8,0-4.6-1.7-4.3-5.8l1.9-36C675.8,258.5,677.5,258,686.6,258z"/>
</g>
</svg>
