<?xml version="1.0" encoding="utf-8"?>
<!-- Generator: Adobe Illustrator 23.0.1, SVG Export Plug-In . SVG Version: 6.00 Build 0)  -->
<svg version="1.1" id="Layer_1" xmlns="http://www.w3.org/2000/svg" xmlns:xlink="http://www.w3.org/1999/xlink" x="0px" y="0px"
	 viewBox="0 0 500 500" style="enable-background:new 0 0 500 500;" xml:space="preserve">
<style type="text/css">
	.st0{fill:#414143;}
</style>
<path class="st0" d="M98.3,46.9C70,46.9,46.9,70,46.9,98.3v303.5c0,28.2,23.2,51.4,51.4,51.4h303.5c28.2,0,51.4-23.1,51.4-51.4V98.3
	c0-28.2-23.2-51.4-51.4-51.4H98.3z M98.3,62.5h303.5c19.7,0,35.8,16.1,35.8,35.8v303.5c0,19.7-16.1,35.7-35.8,35.7H98.3
	c-19.7,0-35.8-16.1-35.8-35.8V98.3C62.5,78.6,78.6,62.5,98.3,62.5z M93.8,93.8c-4.3,0-7.8,3.5-7.8,7.8v15.6c0,4.3,3.5,7.8,7.8,7.8
	s7.8-3.5,7.8-7.8v-15.6C101.6,97.3,98.1,93.8,93.8,93.8z M132.8,93.8c-4.3,0-7.8,3.5-7.8,7.8v15.6c0,4.3,3.5,7.8,7.8,7.8
	s7.8-3.5,7.8-7.8v-15.6C140.6,97.3,137.1,93.8,132.8,93.8z M171.9,93.8c-4.3,0-7.8,3.5-7.8,7.8v15.6c0,4.3,3.5,7.8,7.8,7.8
	s7.8-3.5,7.8-7.8v-15.6C179.7,97.3,176.2,93.8,171.9,93.8z M210.9,93.8c-4.3,0-7.8,3.5-7.8,7.8v15.6c0,4.3,3.5,7.8,7.8,7.8
	s7.8-3.5,7.8-7.8v-15.6C218.8,97.3,215.3,93.8,210.9,93.8z M250,93.8c-4.3,0-7.8,3.5-7.8,7.8v15.6c0,4.3,3.5,7.8,7.8,7.8
	c4.3,0,7.8-3.5,7.8-7.8v-15.6C257.8,97.3,254.3,93.8,250,93.8z M289.1,93.8c-4.3,0-7.8,3.5-7.8,7.8v15.6c0,4.3,3.5,7.8,7.8,7.8
	s7.8-3.5,7.8-7.8v-15.6C296.9,97.3,293.4,93.8,289.1,93.8z M328.1,93.8c-4.3,0-7.8,3.5-7.8,7.8v15.6c0,4.3,3.5,7.8,7.8,7.8
	s7.8-3.5,7.8-7.8v-15.6C335.9,97.3,332.4,93.8,328.1,93.8z M367.2,93.8c-4.3,0-7.8,3.5-7.8,7.8v15.6c0,4.3,3.5,7.8,7.8,7.8
	s7.8-3.5,7.8-7.8v-15.6C375,97.3,371.5,93.8,367.2,93.8z M406.3,93.8c-4.3,0-7.8,3.5-7.8,7.8v15.6c0,4.3,3.5,7.8,7.8,7.8
	s7.8-3.5,7.8-7.8v-15.6C414.1,97.3,410.6,93.8,406.3,93.8z M229.2,235.3c-4.3,0-7.8,3.5-7.8,7.8v113.1c0,7.7-1.5,10.9-2.6,12.1
	s-3,2-7.8,2c-8.9,0-14.6-5-19.3-13.2c-2.1-3.7-6.9-5.1-10.7-2.9c0,0-0.1,0-0.1,0.1l-28.7,17.1c-3.5,2.1-4.8,6.4-3,10.1
	c9.5,19.9,32.2,40.4,63.9,40.4c17,0,32.3-4.5,43.3-14.8c11-10.3,17.1-25.8,17.1-45.4V243.1c0-4.3-3.5-7.8-7.8-7.8H229.2z
	 M356.5,235.3c-33.4,0-57,23.5-57,53.2c0,15.5,4.8,28,13,37.5c8.2,9.5,19.4,15.9,32,21.4l8.4,3.7c7.5,3.4,12.7,6,15.1,8.2
	c2.5,2.2,3.1,3.2,3.1,7.4c0,3-0.8,4.7-2.6,6.2c-1.8,1.5-5.2,2.9-10.8,2.9c-6.5,0-10.3-1.9-14.1-5.3s-7.2-8.6-10.8-14.4
	c-2.2-3.7-7-4.9-10.7-2.7c-0.1,0.1-0.3,0.2-0.4,0.3l-26.4,18c-3.2,2.2-4.3,6.4-2.6,9.9c10.8,21.8,31.9,40.3,65.8,40.3
	c17.3,0,33-4.6,44.7-14.1s18.7-24.1,18.7-41.6c0-15.8-4.8-28.6-13.7-38.3c-8.8-9.7-21-16.4-35.6-22.8h0l-8.4-3.7l0,0
	c-7-3.1-11.5-5.6-13.5-7.5c-2-1.9-2.4-2.6-2.4-6.2c0-4.4,1.8-6.9,8.3-6.9c3.7,0,5.8,0.7,7.9,2.1c2.1,1.4,4.4,4,6.9,8.6
	c2.1,3.8,6.8,5.2,10.6,3.1c0.2-0.1,0.4-0.2,0.5-0.3l26.1-17.2c3.4-2.2,4.5-6.8,2.5-10.3C398.9,245,379.7,235.3,356.5,235.3z
	 M237,250.9h20.8v110.8c0,16.4-4.6,27-12.1,33.9s-18.4,10.6-32.7,10.6c-21.6,0-36.5-13-45.1-26.1l15.5-9.3c6.6,8.2,15.3,15,27.4,15
	c6.8,0,14-1.4,19.1-6.8s6.9-13.1,6.9-22.8V250.9z M356.5,250.9c16.6,0,27,5.7,36,18.1l-13,8.5c-2.1-2.6-3.7-5.8-6.3-7.5
	c-4.9-3.3-10.7-4.7-16.6-4.7c-13.2,0-23.9,10.3-23.9,22.5c0,6.7,2.7,13.3,7.4,17.6s10.5,7.1,17.9,10.4c0,0,0,0,0,0l8.4,3.7
	c13.9,6.1,24,12,30.4,19s9.6,14.9,9.6,27.8c0,13.4-4.8,22.8-13,29.4c-8.2,6.7-20.3,10.6-34.8,10.6c-25.3,0-39.1-10.9-48.2-25.9
	l14.1-9.6c2.7,4,4.9,8.1,8.8,11.5c6,5.4,14.4,9.2,24.5,9.2c8.3,0,15.5-2.1,20.9-6.6s8.2-11.3,8.2-18.1c0-7.6-3.2-14.5-8.3-19.1
	s-11.4-7.4-19.2-10.8c0,0,0,0,0,0l-8.4-3.7c0,0,0,0,0,0c-11.6-5.1-20.6-10.5-26.5-17.3c-5.9-6.8-9.2-14.8-9.2-27.3
	C315.1,266.6,329.9,250.9,356.5,250.9z"/>
</svg>
