<?xml version="1.0" encoding="utf-8"?>
<!-- Generator: Adobe Illustrator 23.0.1, SVG Export Plug-In . SVG Version: 6.00 Build 0)  -->
<svg version="1.1" id="Layer_1" xmlns="http://www.w3.org/2000/svg" xmlns:xlink="http://www.w3.org/1999/xlink" x="0px" y="0px"
	 viewBox="0 0 500 500" style="enable-background:new 0 0 500 500;" xml:space="preserve">
<style type="text/css">
	.st0{fill:#414143;}
</style>
<path class="st0" d="M210.9,31.3c-31.8,0-58.1,23.9-62,54.7h-16.2c-4.3,0-7.8,3.5-7.8,7.8v15.6H85.9c-21.5,0-39.1,17.6-39.1,39.1
	v281.3c0,21.5,17.6,39.1,39.1,39.1h328.1c21.5,0,39.1-17.6,39.1-39.1V148.4c0-21.5-17.6-39.1-39.1-39.1h-8.9
	C292.4,55.4,252.9,31.3,210.9,31.3z M210.9,46.9c32.1,0,69.5,19.5,158.3,62.5H187.5V93.8c0-4.3-3.5-7.8-7.8-7.8h-14.9
	C168.5,63.7,187.6,46.9,210.9,46.9z M140.6,101.6h14.3c0.8,0.1,1.7,0.1,2.5,0h14.4v70.3h-14.4c-0.4-0.1-0.9-0.1-1.3-0.1
	c-0.4,0-0.8,0-1.1,0.1h-14.4V101.6z M85.9,125H125v23.4H93.8c-4.3,0-7.8,3.5-7.8,7.8v265.6c0,4.3,3.5,7.8,7.8,7.8h195.3
	c4.3,0,7.8-3.5,7.8-7.8v-38.8c0-13.1,10.5-23.5,23.6-23.4c0,0,0.1,0,0.1,0l85.7-0.3c4.3,0,7.8-3.5,7.8-7.8V156.3
	c0-4.3-3.5-7.8-7.8-7.8H187.5V125h226.6c13,0,23.4,10.4,23.4,23.4v281.3c0,13-10.4,23.4-23.4,23.4H85.9c-13,0-23.4-10.4-23.4-23.4
	V148.4C62.5,135.4,72.9,125,85.9,125z M101.6,164.1H125v15.6c0,4.3,3.5,7.8,7.8,7.8h15.6v7.8c-0.1,4.3,3.4,7.9,7.7,7.9
	c4.3,0.1,7.9-3.4,7.9-7.7c0-0.1,0-0.1,0-0.2v-7.8h15.6c4.3,0,7.8-3.5,7.8-7.8v-15.6h210.9v179.7l-77.8,0.2
	c-21.6-0.2-39.4,17.5-39.4,39.1v31H101.6V164.1z M250.1,195.3c-1.1,0-2.2,0.2-3.2,0.6L184.4,223c-0.3,0.1-0.6,0.3-0.9,0.5
	c0,0-0.1,0-0.1,0c-2,1.2-3.4,3.3-3.7,5.6c0,0,0,0,0,0c0,0,0,0,0,0c-0.1,0.5-0.1,0.9-0.1,1.4v69.9c0,2.8,1.5,5.4,4,6.8l62.5,35.4
	c0.3,0.2,0.7,0.3,1,0.5c0,0,0.1,0,0.1,0c1.2,0.5,2.5,0.6,3.8,0.4c0,0,0,0,0,0c0.3,0,0.5-0.1,0.7-0.1c0,0,0,0,0,0
	c0.5-0.1,1-0.3,1.4-0.5c0.1-0.1,0.3-0.1,0.4-0.2c0,0,0,0,0,0l62.5-33.2c2.6-1.4,4.1-4,4.2-6.9v-72.2c0.1-1.7-0.4-3.4-1.4-4.8
	c-0.1-0.2-0.3-0.4-0.4-0.5c0,0,0-0.1-0.1-0.1c0,0-0.1-0.1-0.1-0.1c-0.3-0.3-0.6-0.7-1-0.9c-0.2-0.1-0.4-0.3-0.5-0.4c0,0-0.1,0-0.1,0
	c0,0,0,0,0,0c-0.4-0.2-0.7-0.4-1.1-0.6L253.1,196C252.2,195.5,251.1,195.3,250.1,195.3z M250,211.6l43.9,19.1L250,252.5l-43.9-21.8
	L250,211.6z M195.3,242.8l46.9,23.3v56.4L195.3,296V242.8z M304.7,242.8V298l-46.9,24.9v-56.9L304.7,242.8z M132.8,367.2
	c-4.3,0-7.8,3.5-7.8,7.8v15.6c0,4.3,3.5,7.8,7.8,7.8s7.8-3.5,7.8-7.8V375C140.6,370.7,137.1,367.2,132.8,367.2z M171.9,367.2
	c-4.3,0-7.8,3.5-7.8,7.8v15.6c0,4.3,3.5,7.8,7.8,7.8s7.8-3.5,7.8-7.8V375C179.7,370.7,176.2,367.2,171.9,367.2z M210.9,367.2
	c-4.3,0-7.8,3.5-7.8,7.8v15.6c0,4.3,3.5,7.8,7.8,7.8s7.8-3.5,7.8-7.8V375C218.8,370.7,215.3,367.2,210.9,367.2z M250,367.2
	c-4.3,0-7.8,3.5-7.8,7.8v15.6c0,4.3,3.5,7.8,7.8,7.8c4.3,0,7.8-3.5,7.8-7.8V375C257.8,370.7,254.3,367.2,250,367.2z M328.1,382.8
	c-4.3,0-7.8,3.5-7.8,7.8v31.3c0,4.3,3.5,7.8,7.8,7.8h78.1c4.3,0,7.8-3.5,7.8-7.8v-31.3c0-4.3-3.5-7.8-7.8-7.8H328.1z M335.9,398.4
	h62.5v15.6h-62.5V398.4z"/>
</svg>
