<?xml version="1.0" encoding="utf-8"?>
<!-- Generator: Adobe Illustrator 23.0.1, SVG Export Plug-In . SVG Version: 6.00 Build 0)  -->
<svg version="1.1" id="Layer_1" xmlns="http://www.w3.org/2000/svg" xmlns:xlink="http://www.w3.org/1999/xlink" x="0px" y="0px"
	 viewBox="0 0 188.2 75.4" style="enable-background:new 0 0 188.2 75.4;" xml:space="preserve">
<style type="text/css">
	.st0{fill:#038375;}
	.st1{fill:#677887;}
	.st2{fill:#FFFFFF;}
</style>
<g>
	<g>
		<path class="st0" d="M6.7,13.6c-0.3,0-5.1-0.2-5.9-0.2c0.1-1,0.1-4.9,0.1-5.3V5.7c0-0.3,0-4.8-0.1-5.2h2.6c0,0.4-0.1,4.2-0.1,6.4
			V11c0.3,0,2,0,3.4-0.1L6.7,13.6z"/>
	</g>
	<g>
		<path class="st0" d="M15,13.6c-0.4,0-5.4-0.2-5.9-0.2c0-1,0-4.9,0-5.3V5.7c0-0.3,0-4.7,0-5.2c0.6,0,5.1-0.3,5.6-0.3l0.1,2.3
			c-0.5,0-2.9,0.1-3.2,0.1V6c0.3,0,2-0.1,2.6-0.2v2.3c-0.3,0-2.4-0.1-2.7-0.1v3.2c0.4,0,2.4,0,3.4-0.1L15,13.6z"/>
	</g>
	<g>
		<path class="st0" d="M17.9,5.4c0-0.4,0-4.4-0.1-4.9c1.9,0,3.6,0.1,4.9,0.3c4.3,0.7,4.9,3.3,4.9,4.7c0,5.7-5.6,8.1-9.8,8.1
			c0.1-0.8,0.1-5.4,0.1-5.9L17.9,5.4z M20.4,10.9c2.4-0.4,4.5-2.3,4.5-4.9c0-2.4-2-3.3-4.5-3.2V10.9z"/>
	</g>
	<g>
		<path class="st1" d="M40,13.6c-0.3,0-5.1-0.2-5.9-0.2c0.1-1,0.1-4.9,0.1-5.3V5.7c0-0.3,0-4.8-0.1-5.2h2.5c0,0.4,0,4.2,0,6.4V11
			c0.3,0,2,0,3.4-0.1V13.6z"/>
	</g>
	<g>
		<path class="st1" d="M42.3,13.4c0-0.8,0-5.1,0-5.6V5.9c0-0.3,0-5-0.1-5.4h2.6c0,0.3-0.1,3.3-0.1,5.4v1.9c0,1.8,0,5.1,0.1,5.5h-2.5
			V13.4z"/>
	</g>
	<g>
		<path class="st1" d="M54.3,13.6c-0.4,0-5.4-0.2-5.9-0.2c0-1,0-4.9,0-5.3V5.7c0-0.3,0-4.7,0-5.2c0.6,0,5.1-0.3,5.6-0.3l0.1,2.3
			c-0.5,0-2.9,0.1-3.2,0.1V6c0.3,0,2-0.1,2.6-0.2v2.3c-0.3,0-2.4-0.1-2.7-0.1v3.2c0.4,0,2.4,0,3.4-0.1L54.3,13.6z"/>
	</g>
	<g>
		<path class="st1" d="M64.4,13.6c-0.5,0.1-1.1,0.2-1.8,0.2c-4.9,0-6.4-3.4-6.4-5.5c0-3.1,2.2-6.8,7.3-8L64,3.1
			c-3.2,0.6-5.1,2.6-5.1,4.9c0,1.7,1.3,3.3,3.9,3.3c0.6,0,1.1-0.1,1.5-0.2L64.4,13.6z"/>
	</g>
	<g>
		<path class="st1" d="M66.8,13.4c0-0.8,0-5.1,0-5.6V5.9c0-0.3,0-5-0.1-5.4h2.6c0,0.3-0.1,4-0.1,4.3v1l5-0.3v-1c0-0.3,0-3.5-0.1-3.9
			h2.6c0,0.4-0.1,5.5-0.1,5.9v1.8c0,0.2,0,4.8,0.1,5.2h-2.5c0-0.6,0.1-3.8,0.1-4.1V7.8l-4.9,0.3V9c0,0.8,0,4.1,0.1,4.5H66.8z"/>
	</g>
	<g>
		<path class="st1" d="M82.1,13.4c0-0.5,0.1-4.2,0.1-6.6V2.9c-1.1,0-3.2,0.1-3.7,0.1V0.5c0.6,0.1,4.2,0.2,4.3,0.2h1.3
			c0.3,0,3.5-0.1,4.2-0.2v2.5c-0.3-0.1-2.9-0.1-3.7-0.1v4.3c0,2.6,0.1,5.9,0.1,6.3h-2.6V13.4z"/>
	</g>
	<g>
		<path class="st1" d="M95.9,13.6c-0.4,0-5.4-0.2-5.9-0.2c0-1,0-4.9,0-5.3V5.7c0-0.3,0-4.7,0-5.2c0.6,0,5.1-0.3,5.6-0.3l0.1,2.3
			c-0.5,0-2.9,0.1-3.2,0.1V6c0.3,0,2-0.1,2.6-0.2v2.3c-0.3,0-2.4-0.1-2.7-0.1v3.2c0.4,0,2.4,0,3.4-0.1L95.9,13.6z"/>
	</g>
	<g>
		<path class="st1" d="M98.3,13.4c0-0.7,0.2-3.5,0.3-6.3s0.2-5.9,0.3-7l0.1,0c1.4,1.4,7.1,7.6,7.5,8.2c0-0.7,0-7.1,0.1-7.9l2.3,0.1
			c-0.1,1-0.2,3.6-0.3,6.2s-0.2,5.4-0.2,7l-0.1,0.1c-1.2-1-7.3-7.9-7.5-8.2l0,0c0,0.6-0.1,7.3-0.1,7.9L98.3,13.4z"/>
	</g>
	<g>
		<path class="st1" d="M111.7,11.4c1.4-0.1,3.1-0.8,3.1-1.8c0-0.6-0.3-0.9-1.4-1.7c-1-0.7-2-1.6-2-3.1c0-2,2.1-4.1,5.2-4.6l0.3,2.4
			c-1.4,0.1-2.8,0.6-2.8,1.7c0,0.6,0.7,1,1.5,1.6c0.9,0.6,2,1.3,2,2.9c0,1.9-1.6,4.3-5.4,5L111.7,11.4z"/>
	</g>
	<g>
		<path class="st1" d="M121.7,13.4c0-0.5,0.1-4.2,0.1-6.6V2.9c-1.1,0-3.2,0.1-3.7,0.1V0.5c0.6,0.1,4.2,0.2,4.3,0.2h1.3
			c0.3,0,3.5-0.1,4.2-0.2v2.5c-0.3-0.1-2.9-0.1-3.7-0.1v4.3c0,2.6,0.1,5.9,0.1,6.3h-2.6V13.4z"/>
	</g>
	<g>
		<path class="st1" d="M135.5,13.6c-0.4,0-5.4-0.2-5.9-0.2c0-1,0-4.9,0-5.3V5.7c0-0.3,0-4.7,0-5.2c0.6,0,5.1-0.3,5.6-0.3l0.1,2.3
			c-0.5,0-2.9,0.1-3.2,0.1V6c0.3,0,2-0.1,2.6-0.2v2.3c-0.3,0-2.4-0.1-2.7-0.1v3.2c0.4,0,2.4,0,3.4-0.1L135.5,13.6z"/>
	</g>
	<g>
		<path class="st1" d="M138.4,13.4c0-0.8,0-5.1,0-5.6V5.9c0-0.3,0-5-0.1-5.4h2.6c0,0.3-0.1,3.3-0.1,5.4v1.9c0,1.8,0,5.1,0.1,5.5
			h-2.5V13.4z"/>
	</g>
	<g>
		<path class="st1" d="M144.1,13.4c0-0.7,0.2-3.5,0.3-6.3c0.1-2.8,0.2-5.9,0.3-7l0.1-0.1c1.4,1.4,7.1,7.6,7.5,8.2
			c0-0.7,0-7.1,0.1-7.9l2.3,0.1c-0.1,1-0.2,3.6-0.3,6.2c-0.1,2.6-0.2,5.4-0.2,7l-0.1,0.1c-1.2-1-7.3-7.9-7.5-8.2l0,0
			c0,0.6-0.1,7.3-0.1,7.9L144.1,13.4z"/>
	</g>
	<g>
		<path class="st1" d="M0.8,22.9c0-0.4,0-4.4-0.1-4.9c1.9,0,3.6,0.1,4.9,0.3c4.3,0.7,4.9,3.3,4.9,4.7c0,5.7-5.6,8.1-9.8,8.1
			c0.1-0.8,0.1-5.4,0.1-5.9L0.8,22.9z M3.4,28.4C5.8,28,7.8,26,7.8,23.5c0-2.4-2-3.3-4.5-3.2L3.4,28.4z"/>
	</g>
	<g>
		<path class="st1" d="M18.9,31.1c-0.4,0-5.4-0.2-5.9-0.2c0-1,0-4.9,0-5.3v-2.4c0-0.3,0-4.7,0-5.2c0.6,0,5.1-0.3,5.6-0.3l0.1,2.3
			c-0.5,0-2.9,0.1-3.2,0.1v3.4c0.3,0,2-0.1,2.6-0.2v2.3c-0.3,0-2.4-0.1-2.7-0.1v3.2c0.4,0,2.4,0,3.4-0.1L18.9,31.1z"/>
	</g>
	<g>
		<path class="st1" d="M22.5,17.7c0.3,0.8,2.9,7.7,3.3,8.7c0.4-1,3.3-8.2,3.5-8.7l2.3,1.5c-0.5,1-5,10.7-5.9,12.4h-0.1
			c-1-1.9-5-11.5-5.5-12.4L22.5,17.7z"/>
	</g>
	<g>
		<path class="st1" d="M39.2,31.1c-0.4,0-5.4-0.2-5.9-0.2c0-1,0-4.9,0-5.3v-2.4c0-0.3,0-4.7,0-5.2c0.6,0,5.1-0.3,5.6-0.3L39,20
			c-0.5,0-2.9,0.1-3.2,0.1v3.4c0.3,0,2-0.1,2.6-0.2v2.3c-0.3,0-2.4-0.1-2.7-0.1v3.2c0.4,0,2.4,0,3.4-0.1L39.2,31.1z"/>
	</g>
	<g>
		<path class="st1" d="M47.9,31.1c-0.3,0-5.1-0.2-5.9-0.2c0.1-1,0.1-4.9,0.1-5.3v-2.4c0-0.3,0-4.8-0.1-5.2h2.6
			c0,0.4-0.1,4.2-0.1,6.4v4.1c0.3,0,2,0,3.4-0.1V31.1z"/>
	</g>
	<g>
		<path class="st1" d="M55.1,17.7c3.2,0,5.4,2.3,5.4,6.5c0,2.6-1.5,7-6.1,7c-3.3,0-5.3-2.7-5.3-6.3S51.4,17.7,55.1,17.7z M54.7,28.9
			c1.4,0,3.1-1.3,3.1-4.6c0-2.8-1.3-4.3-2.8-4.3c-1.7,0-3.1,1.8-3.1,4.7C51.9,27.4,53.1,28.9,54.7,28.9z"/>
	</g>
	<g>
		<path class="st1" d="M63,31c0-0.8,0-5.2,0-6.5v-2c0-0.4,0-4.2,0-4.4c1.9,0,3.5,0.1,4.6,0.4c1.6,0.4,2.9,1.5,2.9,3.6
			c0,2.4-1.8,4.8-5,5.5v0.7c0,0.4,0,2.3,0,2.7C65.5,31,63,31,63,31z M65.4,25.4c1.2-0.3,2.5-1.3,2.5-3.1c0-0.8-0.3-2.1-2.5-2.3V25.4
			z"/>
	</g>
	<g>
		<path class="st1" d="M71.4,30.5c0.3-0.7,3.3-11.3,3.9-12.8h0.1c0.7,1.5,3.2,6.9,3.6,7.9c0.5-1,3.1-6.3,3.6-7.5h0.1
			c0.8,2.2,3.7,10.8,4.2,12.2l-2.3,1.2c-0.4-1.4-2.1-7.3-2.3-7.8c-0.3,0.6-2.5,5-3.4,6.6h-0.1c-1-2-2.6-5.8-2.9-6.5l0,0
			c-0.2,0.8-1.7,6.9-2,7.7L71.4,30.5z"/>
	</g>
	<g>
		<path class="st1" d="M94.7,31.1c-0.4,0-5.4-0.2-5.9-0.2c0-1,0-4.9,0-5.3v-2.4c0-0.3,0-4.7,0-5.2c0.6,0,5.1-0.3,5.6-0.3l0.1,2.3
			c-0.5,0-2.9,0.1-3.2,0.1v3.4c0.3,0,2-0.1,2.6-0.2v2.3c-0.3,0-2.4-0.1-2.7-0.1v3.2c0.4,0,2.4,0,3.4-0.1L94.7,31.1z"/>
	</g>
	<g>
		<path class="st1" d="M97.1,31c0-0.7,0.2-3.5,0.3-6.3s0.2-5.9,0.3-7l0.1-0.1c1.4,1.4,7.1,7.6,7.5,8.2c0-0.7,0-7.1,0.1-7.9l2.3,0.1
			c-0.1,1-0.2,3.6-0.3,6.2s-0.2,5.4-0.2,7l-0.1,0.1c-1.2-1-7.3-7.9-7.5-8.2l0,0c0,0.6-0.1,7.3-0.1,7.9L97.1,31z"/>
	</g>
	<g>
		<path class="st1" d="M112.6,31c0-0.5,0.1-4.2,0.1-6.6v-4c-1.1,0-3.2,0.1-3.7,0.1V18c0.6,0.1,4.2,0.2,4.3,0.2h1.3
			c0.3,0,3.5-0.1,4.2-0.2v2.5c-0.3-0.1-2.9-0.1-3.7-0.1v4.3c0,2.6,0.1,5.9,0.1,6.3C115.2,31,112.6,31,112.6,31z"/>
	</g>
	<g>
		<path class="st1" d="M0.4,46.4c1.4-0.1,3.1-0.8,3.1-1.8c0-0.6-0.3-0.9-1.4-1.7c-1-0.7-2-1.6-2-3.1c0-2,2.1-4.1,5.2-4.6l0.3,2.4
			c-1.4,0.1-2.8,0.6-2.8,1.7c0,0.6,0.7,1,1.5,1.6c0.9,0.6,2,1.3,2,2.9c0,1.9-1.6,4.3-5.4,5L0.4,46.4z"/>
	</g>
	<g>
		<path class="st1" d="M14.6,48.7c-0.4,0-5.4-0.2-5.9-0.2c0-1,0-4.9,0-5.3v-2.4c0-0.3,0-4.7,0-5.2c0.6,0,5.1-0.3,5.6-0.3l0.1,2.3
			c-0.5,0-2.9,0.1-3.2,0.1v3.4c0.3,0,2-0.1,2.6-0.2v2.3c-0.3,0-2.4-0.1-2.7-0.1v3.2c0.4,0,2.4,0,3.4-0.1L14.6,48.7z"/>
	</g>
	<g>
		<path class="st1" d="M17.6,48.5c0.1-0.4,0-6.2,0-6.6v-1.5c0-0.5,0-4.5-0.1-4.8c1.5,0,3.2,0,4.5,0.2c2.1,0.3,3.3,1.3,3.3,3.1
			c0,1.5-0.8,2.6-1.9,3.7c0.4,0.6,2.8,4,3.2,4.5l-2,1.9c-0.3-0.5-3.3-5.8-3.7-6.6c0.7-0.5,1.9-1.5,1.9-2.9c0-0.8-0.5-1.8-2.5-1.8
			v5.3c0,0.7,0,5.3,0.1,5.6h-2.6V48.5z"/>
	</g>
	<g>
		<path class="st1" d="M29.1,35.2c0.3,0.8,2.9,7.7,3.3,8.7c0.4-1,3.3-8.2,3.5-8.7l2.3,1.5c-0.5,1-5,10.7-5.9,12.4h-0.1
			c-1-1.9-5-11.5-5.5-12.4L29.1,35.2z"/>
	</g>
	<g>
		<path class="st1" d="M39.9,48.5c0-0.8,0-5.1,0-5.6V41c0-0.3,0-5-0.1-5.4h2.6c0,0.3-0.1,3.3-0.1,5.4v1.9c0,1.8,0,5.1,0.1,5.5h-2.5
			V48.5z"/>
	</g>
	<g>
		<path class="st1" d="M53.1,48.6c-0.5,0.1-1.1,0.2-1.8,0.2c-4.9,0-6.4-3.4-6.4-5.5c0-3.1,2.2-6.8,7.3-8l0.5,2.7
			c-3.2,0.6-5.1,2.6-5.1,4.9c0,1.7,1.3,3.3,3.9,3.3c0.6,0,1.1-0.1,1.5-0.2L53.1,48.6z"/>
	</g>
	<g>
		<path class="st1" d="M61.4,48.7c-0.4,0-5.4-0.2-5.9-0.2c0-1,0-4.9,0-5.3v-2.4c0-0.3,0-4.7,0-5.2c0.6,0,5.1-0.3,5.6-0.3l0.1,2.3
			c-0.5,0-2.9,0.1-3.2,0.1v3.4c0.3,0,2-0.1,2.6-0.2v2.3c-0.3,0-2.4-0.1-2.7-0.1v3.2c0.4,0,2.4,0,3.4-0.1L61.4,48.7z"/>
	</g>
	<g>
		<path class="st0" d="M135.6,75.4c0-1.3,0.5-2.5,1.3-3.4c-4-0.4-7.8-0.8-11.6-1.5c-4.5-0.9-8.8-2.5-12.6-4.9
			c-2.4-1.4-4.3-3.5-5.5-6c-1.3-2.6-1.4-5.7-0.3-8.4c1.4-3.6,3.6-6.8,6.4-9.4c2.8-2.5,5.9-4.5,9.3-6c6-2.8,12.5-4.2,19.1-4.9
			c1.9-0.3,3.8-0.4,5.7-0.4c0.8,0.1,1.6-0.4,2.2,0.6c0.2,0.3,0.6,0.1,0.9-0.1c2.4-1.3,4.6-2.6,7-3.8c0.4-0.2,0.7-0.6,1.1-0.2
			c0.3,0.3,0.4,0.9,0.1,1.2c-0.5,0.5-0.7,1.2-0.8,1.9c3.9,0.3,7.7,0.9,11.5,1.7c3.9,0.8,7.7,2.2,11.2,4.2c2.5,1.4,4.6,3.4,6,5.9
			c1.9,3.3,1.7,6.7,0.2,9.9c-3.5,7.6-9.7,12.1-17.3,15.3c-7.3,3-14.8,4-22.5,4.4c-0.8,0-1.6,0.3-2.2-0.5c-0.3-0.3-0.6-0.1-0.9,0.1
			c-2.5,1.4-5,2.8-7.4,4.2L135.6,75.4z"/>
		<path class="st2" d="M142.2,34.3c-3.5,3-6.6,6.4-9.3,10.2c-0.9,1.4-1.7,2.9-2.4,4.4c-0.3,0.8-1.1,1.3-1.9,1.3
			c-4.5-0.1-9-0.1-13.5,0c-0.6,0-1.5-0.3-1.9,0.5c-0.3,0.6-0.8,1.3-0.3,1.9s1,0.3,1.6,0.3c4.2,0,8.3,0.1,12.5,0
			c1.4,0,1.5,0.3,1.3,1.7c-0.8,3.3-1.2,6.7-0.5,10.1c0.1,0.8,0.1,1.6,1.3,1.6c1.2-0.2,2.1-1.1,2.2-2.3c0-0.3-0.1-0.7-0.3-1
			c-0.9-3.1-0.1-6.1,0.8-9.1c0.2-0.6,0.8-1,1.4-1c3.1,0,6.3,0,9.4-0.1c0.7,0,0.9,0.2,0.6,0.9c-1.1,2.6-2.2,5.3-3.2,7.9
			c-0.4,1-1.2,1.9-0.4,3.3c0.7,1.3-1.7,3.9-3.3,3.7c-5.8-0.6-11.7-1.5-17.1-3.8c-2.3-0.9-4.5-2.3-6.3-4c-4.1-3.8-4.3-8.1-1-12.8
			c2.6-3.6,6-6.5,10-8.5c5.9-3,12.3-4.8,18.9-5.3C141.3,34.3,141.8,34.3,142.2,34.3z"/>
		<path class="st2" d="M147.8,50c1.4-4.4,3.4-8.6,5.1-13c0.5,0.1,0.6,1.2,1.5,0.9c0.9-0.3,0.8-1.3,1-2.1c0.5-2.3,0.6-2.4,2.9-2
			c1.5,0.2,3,0.1,4.4,0.3c3.3,0.4,6.5,1.2,9.6,2.2c4.2,1.6,8.2,3.5,11,7.2c1.2,1.6,1.1,3.5,1.4,5.3c0.1,0.6-0.3,1.1-0.9,1.2
			c0,0-0.1,0-0.1,0c-5.8,0-11.5,0.2-17.2-0.1c-1-0.1-1-0.3-0.8-1c0.7-2.2,1.1-4.4,1.1-6.7c-0.1-1.4,0-2.8-0.1-4.2
			c-0.1-0.7,0.1-1.7-1.2-1.7c-1,0.1-2.4,1.3-2.2,2.2c0.8,3.5,0.2,6.8-0.8,10.1c-0.3,0.8-0.5,1.3-1.6,1.3C156.6,50,152.2,50,147.8,50
			z"/>
		<path class="st2" d="M152.1,68.1c2.7-2.3,5.1-4.9,7.3-7.6c1.6-2,3-4.2,4.1-6.5c0.2-0.6,0.7-1.1,1.4-1h18.6
			C175.6,64,164.3,67,152.1,68.1z"/>
		<path class="st2" d="M140.8,65.4c1.8-2.4,2.8-5.3,3.8-8c1.6-4.2,1.5-4.3,5.9-4.4c3-0.1,6,0,8.9,0c1.1,0,1.3,0.1,0.7,1.3
			c-3.2,5.6-7.7,10.2-13.1,13.6c-2,1.3-2.6,1.2-4.2-0.6C142.2,66.6,141.5,66,140.8,65.4z"/>
		<path class="st2" d="M152.2,36.5c-2.5-0.1-2.8,1.7-3.4,3.3c-1.3,3.2-2.6,6.3-3.9,9.5c-0.2,0.6-0.8,1-1.5,1c-3.1,0-6.1-0.1-9.2,0
			c-1.3,0-1.1-0.7-0.7-1.3c1.3-1.9,2.4-4,3.8-5.8c2.2-2.7,4.8-5.1,7.6-7.2c1.2-0.8,2.5-1.6,3.7-2.3c0.4-0.3,0.6,0,0.8,0.3
			C150.4,34.7,151.3,35.5,152.2,36.5z"/>
	</g>
</g>
</svg>
