<?xml version="1.0" encoding="utf-8"?>
<!-- Generator: Adobe Illustrator 25.2.1, SVG Export Plug-In . SVG Version: 6.00 Build 0)  -->
<svg version="1.1" id="Layer_1" xmlns="http://www.w3.org/2000/svg" xmlns:xlink="http://www.w3.org/1999/xlink" x="0px" y="0px"
	 viewBox="0 0 198.1 88.6" style="enable-background:new 0 0 198.1 88.6;" xml:space="preserve">
<style type="text/css">
	.st0{fill:#F49800;}
	.st1{fill:#0072BB;}
	.st2{fill:#FFFFFF;}
</style>
<g>
	<path class="st0" d="M17.8,8.9c0,4.9-4,8.9-8.9,8.9c-4.9,0-8.9-4-8.9-8.9C0.1,4,4.1,0,9,0C13.9,0,17.8,4,17.8,8.9z"/>
	<path class="st0" d="M53.3,8.9c0,4.9-4,8.9-8.9,8.9c-4.9,0-8.9-4-8.9-8.9c0-4.9,4-8.9,8.9-8.9C49.3,0,53.3,4,53.3,8.9z"/>
	<path class="st0" d="M88.7,8.9c0,4.9-4,8.9-8.9,8.9c-4.9,0-8.9-4-8.9-8.9C71,4,75,0,79.9,0C84.7,0,88.7,4,88.7,8.9z"/>
	<path class="st0" d="M17.7,44.3c0,4.9-4,8.9-8.9,8.9c-4.9,0-8.9-4-8.9-8.9c0-4.9,4-8.9,8.9-8.9C13.7,35.4,17.7,39.4,17.7,44.3z"/>
	<path class="st0" d="M53.2,44.3c0,4.9-4,8.9-8.9,8.9c-4.9,0-8.9-4-8.9-8.9c0-4.9,4-8.9,8.9-8.9C49.2,35.4,53.2,39.4,53.2,44.3z"/>
	<path class="st0" d="M17.7,79.7c0,4.9-4,8.9-8.9,8.9c-4.9,0-8.9-4-8.9-8.9c0-4.9,4-8.9,8.9-8.9C13.7,70.8,17.7,74.8,17.7,79.7z"/>
	<path class="st0" d="M53.2,79.7c0,4.9-4,8.9-8.9,8.9c-4.9,0-8.9-4-8.9-8.9c0-4.9,4-8.9,8.9-8.9C49.2,70.8,53.2,74.8,53.2,79.7z"/>
	<path class="st0" d="M88.6,79.7c0,4.9-4,8.9-8.9,8.9c-4.9,0-8.9-4-8.9-8.9c0-4.9,4-8.9,8.9-8.9C84.6,70.8,88.6,74.8,88.6,79.7z"/>
	<g>
		<path class="st1" d="M91.9,53.7c-1.1,0.3-2.2,0.4-3.3,0.7c1.8-1.5,1.7-3.9,2.9-5.7c0.4-0.5,0.7-1,1.1-1.5
			c-0.7,1.5-0.4,3.3-1.2,4.7c-0.3,0.6-0.8,1.1-1.3,1.5c0.2,0,0.3-0.2,0.5-0.2c1.3-1.3,3.1-1.7,4.6-2.8c0.6-0.5,1.1-1.1,1.4-1.7
			C96.2,51,93.9,53.1,91.9,53.7z"/>
		<path class="st1" d="M96.7,44.7c-0.7,0.9-1.5,1.8-2.1,2.8c0.1-0.8,0.2-1.7-0.1-2.4c-0.5-1.5-1-3.1-1.1-4.8l0-0.7
			c0.4,1.7,2.1,2.9,2,4.9c0,0.5-0.1,0.9-0.2,1.3l0,0l0.1-0.1c0.3-0.9,0.4-1.9,0.8-2.8c0.6-1.3,1.3-2.6,1-4.1
			C97.9,40.6,97.6,43,96.7,44.7z"/>
		<path class="st1" d="M95.7,34.9c1.1,1.5,1.3,3.9,0.5,5.6c-0.3,0.7-0.5,1.5-0.6,2.3c-0.1-0.1-0.1-0.3-0.1-0.5
			c-0.4-1.7-2.1-2.9-2.7-4.5c-0.2-0.5-0.4-1.1-0.5-1.6c0.7,1.3,2.4,2,2.9,3.4c0.2,0.4,0.2,0.8,0.3,1.2c0,0,0.1,0,0.1,0
			c-0.2-1.5-0.1-3,0.1-4.5c0-0.8-0.1-1.6-0.5-2.2C95.3,34.3,95.5,34.7,95.7,34.9z"/>
		<path class="st1" d="M94.9,34.6c0.3,1.3-0.1,2.6,0.1,3.9l0,0c-0.7-1.4-2.2-2.1-3.3-3.2c-0.6-0.7-0.9-1.5-1-2.4
			c0.6,1.5,2.2,1.8,3.2,3c0.3,0.3,0.4,0.7,0.6,1l0,0c-0.5-1.1-0.7-2.4-1.1-3.6c-0.2-0.5-0.6-1-1.1-1.4
			C93.6,32.2,94.6,33.4,94.9,34.6z"/>
		<path class="st1" d="M91.6,31.6c0.9,0.8,1.3,1.9,1.6,3l0.1,0.3c-1.3-1-2.5-2.3-3.4-3.6l-1-1.1C89.8,30.7,90.8,30.9,91.6,31.6z"/>
		<path class="st1" d="M70.5,30.4c-0.9,0.8-1.6,1.8-2.2,2.8c-0.6,0.8-1.4,1.3-2.1,1.9c0.4-0.8,0.4-1.7,0.9-2.4
			C67.8,31.4,69.2,30.9,70.5,30.4z"/>
		<path class="st1" d="M65.4,33.3c0.4-0.6,1-0.9,1.7-1.1c-1.2,0.9-1.2,2.4-1.6,3.7c-0.1,0.5-0.3,0.9-0.4,1.4l0,0
			c0.2-0.5,0.6-1.1,1-1.5c0.9-0.8,2.2-1.3,2.6-2.5c0,1.7-1.4,3-2.8,3.9c-0.6,0.5-1.1,1-1.4,1.7c0-0.4,0.1-0.8,0-1.3
			C64.5,36,64.4,34.3,65.4,33.3z"/>
		<path class="st1" d="M62.9,38.3c0-1.5,0.6-2.7,1.4-3.8c0,0,0,0,0.1,0c-1,1.5-0.2,3.3-0.2,4.9l-0.1,1.7c0,0,0,0.1,0.1,0
			c0.1-0.2,0.1-0.4,0.1-0.6c0.2-1.4,1.4-2.3,2.4-3.3c0.2-0.2,0.4-0.5,0.5-0.8c-0.1,0.7-0.3,1.4-0.6,2c-0.8,1.6-2.3,2.9-2.6,4.7
			C64,41.4,62.8,40.1,62.9,38.3z"/>
		<path class="st1" d="M62.2,40.4c0.1-0.5,0.2-0.9,0.4-1.4c-0.4,2,0.9,3.4,1.4,5.1c0.2,0.6,0.2,1.3,0.5,1.9c0,0,0,0,0.1,0
			c-0.6-1.8,0.3-3.5,1.2-4.9c0.2-0.4,0.4-0.8,0.5-1.2c0.1,0.8-0.1,1.8-0.2,2.6c-0.2,1.1-0.6,2.1-0.9,3.2c-0.2,0.7-0.1,1.4,0,2.1
			L65,47.6c-0.7-1.3-2-2.3-2.4-3.6C62.2,42.9,62,41.6,62.2,40.4z"/>
		<path class="st1" d="M62.1,44.2c0.2,2.1,2.4,3.2,3.4,4.9c0.2,0.4,0.5,0.7,0.8,1c-0.1-0.2-0.3-0.4-0.3-0.6
			c-0.4-0.7-0.5-1.6-0.4-2.5c0.1-1.1,0.5-2,0.4-3.2c0.9,2,0.6,4.4,1.1,6.6c0.1,0.5,0.4,0.9,0.6,1.3c-1.9-1.3-4.4-2.5-5.3-4.8
			C62.1,46.1,62.1,45.1,62.1,44.2z"/>
		<path class="st1" d="M63.3,49c1,2.4,3.7,2.6,5.4,4c0.3,0.3,0.7,0.5,1,0.7l0,0c-0.4-0.4-0.9-0.8-1.1-1.2c-1-1.4-0.7-3.4-1.4-5
			c0.7,0.8,1.3,1.7,1.8,2.7c0.6,1.5,0.9,3.3,2.3,4.5c-1.6-0.5-3.4-0.4-4.8-1.3C64.9,52.3,63.5,50.7,63.3,49z"/>
		<path class="st1" d="M65.9,53.4c1.7,1.9,4.4,1.3,6.6,1.8c0.3,0,0.6,0.2,0.9,0.1c-0.3-0.2-0.6-0.2-0.9-0.3c-1.8-0.6-2-2.5-3-3.8
			c1.2,0.8,2.2,1.9,3.4,2.9c0.8,0.7,1.8,1,2.8,1.2c-0.2,0.1-0.6,0.1-0.8,0.1c-1.8,0.5-3.9,1.2-5.8,0.5
			C67.9,55.6,66.6,54.6,65.9,53.4z"/>
		<path class="st1" d="M88.7,57.8c-1.9,0.7-3.9,0-5.3-1.1c-0.6-0.4-1.1-0.9-1.9-0.9c-0.3,0-0.6,0-0.8,0.1c1.4,0.7,2.8,1.6,4,2.8
			c-0.2,0.2-0.5,0.5-0.7,0.7c-1.2-1.3-2.5-2.5-3.9-3.2c-0.3,0-0.5,0.2-0.8,0.3c-1.2,0.8-2.3,1.7-3.2,2.9l-0.8-0.6
			c1.2-1.2,2.5-2.2,4-2.8c-1.4-0.4-2.4,0.8-3.5,1.4c-1.3,0.9-3.1,1.3-4.6,0.7c-0.8-0.3-1.6-0.8-2.2-1.5c1.2,0.8,3,0.9,4.4,0.4
			c1.8-0.8,3.8-1.8,6-1.3c0.3,0,0.7,0.3,1,0.1c1.7-0.4,3.5-0.1,4.9,0.6l1.5,0.6c1.4,0.5,3.1,0.4,4.3-0.5
			C90.3,57,89.5,57.5,88.7,57.8z"/>
		<path class="st1" d="M90.7,55.9c-2.1,0.8-4.2-0.2-6.3-0.5l-0.4,0v0c1-0.2,1.9-0.5,2.7-1.2c1.1-1.1,2.1-2.2,3.4-3.1
			c-0.9,1.2-1,2.9-2.6,3.7c-0.4,0.2-0.9,0.3-1.3,0.5c0.6,0,1.1-0.2,1.6-0.2c2.1-0.3,4.5,0,5.9-1.8C93.3,54.4,91.9,55.5,90.7,55.9z"
			/>
		<path class="st1" d="M94.5,49.9c-0.8,0.5-1.7,1.1-2.5,1.7v-0.1c1.2-2,0.6-4.9,1.4-7.1l0.3-0.8c-0.2,1.4,0.5,2.6,0.4,4
			c0,0.8-0.3,1.6-0.8,2.3h0.1c0.6-0.8,1.1-1.6,1.8-2.4c1.1-1.1,2.2-2.1,2.4-3.6C97.9,46.4,96.6,48.5,94.5,49.9z"/>
		<path class="st1" d="M91.2,36.4c-2.1-4.4-6.6-7.2-11.3-7.2c-2.1,0-4,0.5-5.7,1.4c-3.1,1.5-5.6,4.7-6.5,7.9
			c-1.4,5.4,0.5,10.8,5.1,13.9c3.3,2.4,8.6,2.8,12.3,1c3.3-1.4,6.1-4.8,7-8.1C92.9,42.4,92.5,38.9,91.2,36.4 M91.8,40.8
			c0,0.2,0,0.5,0.1,0.6l-1.8,0c0,0-0.1,0.1-0.1,0.1l0-0.1c0-1.4-0.4-2.7-1-3.9c0-0.5-0.5-0.9-0.8-1.4c-0.4-0.3-0.5-0.8-1-1
			c-0.1-0.1-0.1-0.3-0.3-0.3l0.2,0c0.4-0.4,0.9-0.9,1.3-1.3C90.3,35.6,91.5,38,91.8,40.8 M86.7,47.6c-0.2-0.2-0.2-0.4-0.4-0.4
			c-0.1,0-0.1,0.1-0.1,0.2c0,0,0,0.1,0,0.1L85.5,47c0.3-0.1,0.5-0.5,0.7-0.8c0.5-0.7,0.8-1.6,1.1-2.4c0.1,0.1,0.2,0.1,0.3,0
			c0.1-0.1,0.1-0.2,0-0.3l-0.2-0.2c0-0.4,0.1-0.7,0.1-1.1l0.1,0c0.6,0,1.2,0,1.7,0l-0.1,0.1c-0.1,2.3-0.9,4.3-2.5,6
			C86.8,48.1,86.6,47.9,86.7,47.6 M85.2,49.4c-0.3-0.3,0.2-0.6,0.3-0.8c-0.1-0.3-0.4-0.5-0.6-0.5c-0.1-0.1-0.1-0.2-0.1-0.3
			c0.1-0.1,0.2-0.2,0.3-0.4l0,0.1l0.8,0.8c0,0.2,0,0.3,0.2,0.4c0.1,0,0.2,0,0.3,0h0c-0.3,0.4-0.7,0.6-1.1,0.9l-0.1,0.1
			C85,49.6,85.3,49.6,85.2,49.4 M81.7,39.7c-0.1,0-0.2,0.1-0.3,0.1c-0.1-0.1-0.2-0.3-0.4-0.3c-0.1,0-0.2,0.2-0.3,0.1
			c0.2-0.2,0.6-0.3,0.8-0.6c0.1-0.2,0.1-0.3,0.1-0.5c-0.1-0.1-0.2-0.1-0.2-0.1c-0.1,0.2-0.4,0.2-0.5,0.5l-0.5-0.1
			c-0.1-0.4,0-0.9-0.1-1.3c0.2,0.1,0.5,0.1,0.8,0.2c0.6,0.2,1.2,0.5,1.8,0.8c-0.1,0-0.3,0.2-0.4,0.3c0,0.1,0.1,0.1,0.2,0.2l0.1,0
			C82.4,39.2,81.7,39.2,81.7,39.7 M82.2,44.9c0,0.2-0.3,0.2-0.5,0.4c-0.1,0,0-0.1,0-0.2C81.9,45,82,44.9,82.2,44.9 M85.8,38.9
			c0.2,0,0.3,0.3,0.5,0.3c0.2,0.3,0.3,0.6,0.4,0.9c-0.2,0.2-0.2,0.6-0.6,0.5c-0.1-0.2,0.2-0.3,0.1-0.5c0.1,0,0.2-0.1,0.2-0.2
			c0-0.2-0.3-0.2-0.3-0.3c-0.1-0.1-0.2-0.1-0.3-0.1c-0.2-0.1-0.5,0.5-0.5,0c0.1-0.1,0.1-0.2,0.1-0.2c-0.2-0.1-0.2-0.4-0.5-0.5
			c-0.3,0-0.6-0.1-0.9-0.1c-0.2,0-0.4-0.2-0.6,0c0,0.2-0.1,0.3-0.1,0.4c-0.1,0-0.1-0.1-0.2-0.2c0.6-0.6,1.2-1.2,1.8-1.8l0-0.1
			c0.3,0.4,0.6,0.7,0.8,1.1C85.8,38.5,85.4,38.7,85.8,38.9 M86.9,42.2c-0.1,0.3-0.1,0.7-0.2,1.1c0,0.1,0,0.1-0.1,0.2
			c-0.1-0.2-0.2-0.5-0.4-0.6c-0.2-0.1-0.1-0.4-0.3-0.5l-0.2-0.2C86,42.3,86.5,42.2,86.9,42.2 M84.2,36.9c-0.3,0.4-0.8,0.7-1,1.1
			l0-0.1c-0.8-0.7-1.8-1-2.8-1.2l-0.2,0l0-1.7l-0.1-0.1c0.7,0.1,1.4,0.2,2,0.4c0.8,0.3,1.6,0.7,2.3,1.3l0.1,0.1L84.2,36.9
			 M82.5,46.2c0.6,0.1,1.1,0.2,1.6,0.4c0.1,0,0.3,0,0.4-0.1c0-0.2,0.2-0.3,0.2-0.5c0.1-0.2,0-0.4,0.2-0.6c0-0.2,0-0.5-0.1-0.6
			c-0.1-0.1-0.3,0-0.4,0c-0.1,0.1-0.1,0.4-0.4,0.4c-0.1,0.1-0.2,0.1-0.3,0.1c0,0-0.1,0,0-0.1c0.2-0.1,0.5,0,0.5-0.3
			c0.1-0.1,0.4-0.1,0.5-0.2c0.1-0.1,0.1-0.3,0.3-0.4c0-0.1,0-0.1,0-0.2c0,0.1,0,0.2,0.2,0.3c0.1,0,0.2-0.1,0.3-0.2
			c0-0.1,0-0.1,0.1-0.1c0.2,0.1,0.4,0,0.6,0c0.2-0.1,0.3-0.1,0.5-0.1c-0.1,0.7-0.5,1.3-0.9,1.9c-0.2,0.2-0.3,0.4-0.5,0.6
			c-0.1-0.1,0-0.3-0.2-0.5l-0.1,0c-0.1,0.2-0.3,0.4-0.3,0.6c-0.1,0.2-0.5,0-0.8,0.2c-0.3,0.1-0.4-0.2-0.6-0.2
			c-0.2-0.1-0.5-0.1-0.7-0.2C82.4,46.2,82.5,46.2,82.5,46.2 M81.3,30c2.5,0.3,4.8,1.3,6.7,3.2l-0.2,0.1c-0.3,0.4-0.7,0.7-0.9,1.1
			c0-0.1-0.2-0.2-0.3-0.3c0-0.3-0.4-0.7-0.7-0.8c-0.2,0-0.3-0.4-0.6-0.3c-0.2-0.2-0.6-0.1-0.8,0.1v0c-1.2-0.7-2.5-1.1-4-1.2
			c-0.1,0-0.1,0.1-0.2,0c0.1,0,0-0.2,0-0.3c0-0.1-0.1-0.1-0.2-0.1c0,0-0.1,0.1-0.1,0.2c0-0.6,0.1-1.2,0-1.7
			C80.5,29.9,80.9,29.9,81.3,30 M80.8,32.5c1.1,0.1,2.1,0.4,3,0.9c0.1,0.2,0.4,0.3,0.5,0.6c-0.1,0.4,0.5,0.4,0.2,0.8
			c0,0.1,0.1,0.2,0.1,0.3c0,0.1,0,0.3,0.1,0.3c0.2,0.1,0.3-0.2,0.5-0.2c0.3,0.2,0.4,0.6,0.4,0.9c0,0.2,0.2,0.3,0.4,0.4
			c0.4-0.1,0.2,0.3,0.5,0.4c0.3,0,0.4,0.4,0.8,0.4c0.3,0.2,0.4,0.5,0.7,0.8c0,0.1,0,0.1,0.1,0.1c0.2,0,0.2-0.1,0.4-0.1
			c0.5,1,0.7,2.1,0.8,3.3l0.1,0.1c-0.6,0-1.2,0-1.8,0c0-0.4,0-0.7-0.2-1c0.1-0.2,0.1-0.4,0.1-0.6c0-0.1-0.1,0-0.2,0
			c-0.2,0.2-0.2,0.5-0.3,0.7c-0.2,0.2-0.2,0.6-0.1,0.9l0.1,0.1l-0.7,0c0.2-0.1-0.1-0.3,0-0.5l0.3-0.1c0.1-0.2,0.4-0.4,0.3-0.7
			c0.1-0.2,0.3-0.4,0.2-0.6c-0.2-0.3,0.3-0.7-0.1-1c0-0.1,0-0.2-0.1-0.2c-0.1,0-0.2,0-0.2-0.1c0.1-0.1,0.2-0.2,0.2-0.3
			c-0.1-0.1-0.2,0-0.3,0c0-0.2,0.3-0.3,0-0.5c-0.2,0-0.3,0.2-0.4,0.1c-0.1-0.1-0.1-0.2-0.1-0.3l-0.4-0.5c0,0-0.1,0-0.1-0.1
			c0-0.4-0.4-0.6-0.5-0.9c-0.1-0.1,0-0.4-0.2-0.5c-0.1-0.1-0.2-0.2-0.4-0.1c-0.2-0.2-0.3-0.5-0.6-0.7c-0.1,0-0.1,0-0.1,0.1
			c0,0.2,0.2,0.3,0.2,0.5c0,0-0.1,0-0.1,0c0,0.2,0.2,0.3,0.3,0.5c-1-0.8-2.1-1.2-3.4-1.4c-0.2,0-0.5-0.1-0.7,0c0.1-0.5,0-1.2,0-1.8
			l-0.1-0.1C80.3,32.5,80.6,32.5,80.8,32.5 M79.8,39.7l0.1,0.1c-0.1,0-0.3-0.1-0.4,0c-0.1,0.1,0,0.2,0,0.2c0.2,0.1,0.3,0.5,0.6,0.3
			c0.1,0,0.3,0,0.3,0.2c0.2,0.1,0.2,0.4,0.5,0.3c0,0.1-0.1,0.3,0.1,0.4c0,0.1-0.2,0.2-0.2,0.3c0,0-0.1,0.1,0,0.2
			c0.2,0,0.2,0.3,0.3,0.4c0,0.2,0,0.4,0.2,0.5c0,0.2-0.1,0.4-0.2,0.6c-0.2,0.1-0.6-0.2-0.7,0.3c-0.1,0.2,0,0.5-0.3,0.5
			c-0.5,0-1-0.1-1.4-0.4c0.3-0.1,0.7,0.1,0.8-0.3c0.1-0.1,0.1-0.2,0.1-0.2c0.1-0.1,0.2-0.3,0.2-0.4c-0.1-0.1-0.1-0.1,0-0.3
			c-0.3-0.3-0.6-0.1-0.9-0.1c-0.2,0.1,0,0.3-0.1,0.5c-0.2,0-0.3,0.3-0.4,0.4c-0.1,0-0.2-0.2-0.2-0.3h0c0,0,0,0.1,0.1,0.1
			c0.2,0,0.2-0.2,0.2-0.3c0-0.2,0.4-0.4,0.1-0.5c0-0.1,0-0.1,0-0.2c-0.1,0-0.2,0-0.2,0.2c0,0.1,0,0.2-0.1,0.3H78
			c0-0.1,0-0.1-0.1-0.2c-0.1,0-0.3,0.1-0.4,0.1c-0.2,0-0.4,0.1-0.6,0.1c0-0.1,0.2-0.1,0.2-0.2c0-0.2,0.1-0.3,0.2-0.4
			c0,0,0.1,0,0.2,0c0.1,0.1,0.1,0.1,0.2,0.1l0.1-0.1c0.2,0.1,0.1,0.7,0.5,0.4c0.1-0.2,0-0.5,0.1-0.7c-0.1-0.2,0.1-0.3,0.2-0.4
			c0.2,0,0.2-0.2,0.3-0.3c0.3-0.1,0.6-0.2,0.8-0.5c-0.1-0.2,0-0.4-0.2-0.5C79.5,39.7,79.7,39.6,79.8,39.7 M79.5,51.4l-0.2-0.1
			c-2.3-0.1-4.3-1.1-6.1-2.6c0.3,0,0.4,0.3,0.7,0.3c0.3,0,0.6-0.3,1-0.3c0.2,0,0.4,0,0.5-0.2c0.1-0.2-0.1-0.3-0.2-0.4
			c1.2,0.9,2.5,1.4,4.1,1.5l0.2-0.1v1.7L79.5,51.4 M72.9,42.3l-0.1-0.2c0.2,0.1,0.4,0.1,0.6,0.1c-0.3,0.1-0.2,0.5-0.3,0.7
			c0,0.1,0.2,0.1,0.1,0.3c-0.2,0.1-0.2,0.2-0.2,0.4C73.1,43.1,72.9,42.7,72.9,42.3 M71,44.5c-0.2,0-0.1,0.2-0.2,0.3
			c0-0.4-0.2-0.9-0.2-1.3l-0.1-1.2l-0.1-0.1c0.6,0.1,1.2,0,1.7,0l0.1-0.1c0,0.3-0.1,0.7,0.1,0.9c-0.1-0.1-0.2-0.3-0.3-0.3
			c-0.3,0-0.4,0.4-0.7,0.5c-0.3,0.2-0.3,0.5-0.4,0.8C71.1,44.2,70.9,44.4,71,44.5 M72.3,41.6l-0.2-0.1l-1.7,0
			c0.2-1.9,0.7-3.7,1.8-5.2l0.7-0.9l0-0.1c0.4,0.5,0.8,0.9,1.3,1.3c-1.2,1.3-1.9,2.9-2,4.7C72.2,41.5,72.2,41.5,72.3,41.6
			 M79.4,34.3c-0.3-0.1-0.7,0-1,0.1c-1.4,0.3-2.7,0.9-3.8,1.9l0-0.1c-0.4-0.4-0.8-0.9-1.3-1.2c0.4-0.2,0.8-0.6,1.1-0.9
			c1.5-1,3.1-1.5,4.9-1.6C79.4,33,79.4,33.7,79.4,34.3 M76.6,43.7c0,0.1,0.1,0.1,0.2,0.1c0.1-0.1-0.2-0.3,0-0.3
			c0.1,0.1,0.1,0.3,0.1,0.4c0.1,0.1,0.1,0.2,0.1,0.2c-0.2,0.2-0.4,0.4-0.5,0.6c-0.1-0.3-0.4-0.5-0.5-0.8c-0.2-0.3-0.3-0.7-0.5-1
			c0.2,0.2,0.6,0,0.6,0.3c0,0,0.1,0,0.1,0c0.1-0.1,0.1-0.1,0.1,0c0,0.1,0.2,0.1,0.1,0.2C76.4,43.6,76.5,43.7,76.6,43.7 M78.5,48.6
			l0.3,0.1c-1.1-0.3-2.3-0.6-3.2-1.4c-0.2-0.1-0.3-0.3-0.5-0.3c0.4-0.4,0.9-0.8,1.2-1.3c0.2,0.3,0.5,0.5,0.8,0.7
			c0.5,0.2,1,0.6,1.5,0.5c-0.2,0.1-0.3,0.2-0.5,0.3c-0.1,0.2,0,0.4-0.3,0.5C77.9,48.1,78.3,48.4,78.5,48.6 M74.5,46.4L74.4,46
			c-0.4-0.3-0.2-0.9-0.3-1.3c-0.3-0.2,0-0.5-0.2-0.8c0-0.4-0.6-0.5-0.4-0.9c-0.1-0.1-0.2-0.2-0.1-0.4c0.1-0.1,0.4,0,0.4-0.2l0.1-0.3
			c0.1-0.1,0.3,0.1,0.4-0.1c0.1-0.3-0.5-0.7,0-0.9c0.2,0,0.4-0.1,0.5,0.2c0,0.2,0.1,0.5,0,0.7c0.2,0.1,0,0.2,0,0.3
			c-0.1,0-0.2,0.1-0.3,0.1c-0.1-0.1-0.1-0.2-0.3-0.2c-0.1,0.1,0,0.3,0,0.4c0,0.1,0,0.2-0.1,0.3c0,0-0.1,0-0.2,0
			c-0.1,0.1,0,0.2,0,0.2c0.1,0.1,0.2,0.2,0.3,0.2l0.1-0.1c0-0.2,0.1-0.4,0.1-0.6l0.2,0.1c0.2,0.8,0.5,1.5,1,2.2l0.2,0.2
			c-0.6,0.5-1.1,1.1-1.6,1.6v0c0,0,0-0.1-0.1-0.1C74.1,46.6,74.5,46.7,74.5,46.4 M75.3,39c-0.2,0.1-0.3,0.3-0.4,0.4
			c-0.1,0.1-0.3,0.1-0.5,0.3c0,0.1,0.1,0.2,0,0.2c-0.1,0.1-0.4,0-0.5,0.2c0,0.2-0.3,0.4-0.3,0.6c-0.1,0.1-0.1,0.3-0.1,0.5
			c0.1,0.1,0,0.3,0.1,0.4c-0.2,0-0.6-0.1-0.8,0c0.1-0.3,0.1-0.6,0.2-0.9c0.2-1.3,0.8-2.4,1.7-3.5c0.4,0.4,0.9,0.9,1.4,1.3
			C75.7,38.5,75.7,39,75.3,39 M79.2,45.8c-0.1,0.1,0,0.4-0.1,0.5c-0.8-0.1-1.6-0.5-2.3-1c0.4-0.4,0.9-0.8,1.2-1.2
			c0,0.2,0.3,0.3,0.4,0.4c0.3,0.1,0.7,0.4,1.1,0.2c0,0-0.1,0.1-0.1,0.1c0.1,0.1-0.1,0.2,0,0.3c0,0.1-0.1,0.1-0.1,0.1
			c0.1,0.1,0,0.3,0.2,0.4c0,0.1,0,0.2-0.1,0.2C79.5,45.6,79.3,45.6,79.2,45.8 M77.2,43.9c0.1-0.1,0.2-0.2,0.3-0.4l0.2,0.1
			C77.5,43.6,77.4,43.8,77.2,43.9L77.2,43.9 M79,38.8c0-0.1,0.1-0.2,0-0.2c-0.3,0.1-0.2,0.5-0.4,0.7c0,0.2-0.2,0.1-0.3,0.2
			c-0.1-0.1-0.2-0.1-0.3,0c-0.1,0-0.2-0.3-0.3-0.2c0,0,0,0.2-0.1,0.1c0,0-0.1,0-0.1-0.1c0-0.1,0.2-0.1,0.1-0.2
			c-0.1-0.2-0.4-0.2-0.5-0.3h-0.1c0.7-0.8,1.7-1.1,2.7-1.3c0,0.5-0.1,1,0.1,1.4C79.4,38.6,79.1,38.9,79,38.8 M79.4,36.7
			c-0.3-0.1-0.6,0.1-1,0.1c-0.7,0.2-1.3,0.6-1.9,1c0,0-0.1,0.1-0.1,0.1c-0.4-0.4-0.9-0.9-1.3-1.3c1.2-1,2.6-1.7,4.2-1.8l0.1-0.1
			C79.4,35.5,79.4,36.1,79.4,36.7 M72.6,32.3c2-1.4,4.2-2.3,6.8-2.4l-0.1,0.2l0,1.5l0.1,0.2c-2.5,0.1-4.6,1-6.4,2.7l0,0.1
			c-0.4-0.5-0.9-1-1.4-1.3h-0.1C71.9,32.9,72.3,32.5,72.6,32.3 M68,40.4c0.3-2.6,1.4-4.9,3.2-6.9l0,0.2c0.4,0.4,0.9,0.9,1.3,1.3
			c-0.4,0.2-0.6,0.6-0.8,1c-1.1,1.6-1.8,3.4-1.9,5.4l0,0.2c-0.6,0-1.3,0-1.9,0C67.9,41.2,67.9,40.8,68,40.4 M69.4,47.8
			c-0.9-1.7-1.4-3.5-1.5-5.5l1.7,0l0.2-0.1c0,0.1,0,0.2,0,0.4l0,0c0,0,0,0.1,0,0.1c0,0.7,0.2,1.3,0.3,1.9l0.1,0.1
			c-0.1-0.1-0.2-0.3-0.3-0.4c-0.1,0-0.3,0.1-0.4,0.2c0.1,0.2-0.1,0.1-0.2,0.2c0,0-0.1-0.1-0.1-0.1c-0.1,0-0.3,0-0.3,0.1
			c0,0.1-0.1,0.1-0.1,0.2c0,0.3-0.1,0.7,0.1,0.9c0,0.2,0.1,0.4,0.3,0.5c0.1,0,0.1,0,0.1-0.1c0.2,0.1,0.3,0.4,0.5,0.4
			c0.1,0,0.1-0.1,0.1-0.2c0.1,0.1,0.2,0.4,0.4,0.4c0.1,0.1,0.1,0.2,0.2,0.2c0.3-0.1,0.2,0.3,0.4,0.4c0.1,0.1,0.2,0.3,0.4,0.2
			l0.1-0.1c0.1,0,0,0.2,0.1,0.2c0.1,0.2,0.3,0.3,0.5,0.4c0.2,0.2,0.4,0.5,0.6,0.6l-0.2,0.1l-1.3,1.3C70.5,49.4,69.9,48.6,69.4,47.8
			 M78.3,53.7c-2.5-0.3-4.7-1.4-6.7-3.1l1.3-1.3l0-0.1c1.8,1.7,4,2.6,6.4,2.8l0.2,0L79.4,52v1.7l0.1,0.1
			C79.1,53.8,78.7,53.8,78.3,53.7 M79.8,46.6c-0.1,0-0.3,0-0.4,0c-0.1,0,0-0.1-0.1-0.1c0.2,0,0.3-0.2,0.5-0.2
			c0.1-0.1,0.1-0.3,0.3-0.3c0-0.2,0.2-0.1,0.2-0.1c0.1-0.1,0.1-0.1,0.2-0.1c0.1,0.2,0.4,0.1,0.5,0.3c0.1,0,0.1,0,0.1-0.1v-0.1
			c0.2,0,0.3,0.3,0.5,0.1c0.1,0,0-0.1,0-0.2c0,0-0.1,0-0.1-0.1c0.1-0.1,0.2,0.2,0.4,0.1c0.1-0.1,0.2-0.3,0.4-0.3l0,0.1
			c0,0.4-0.3,0.6-0.6,0.8c-0.2,0.1-0.5,0.1-0.5,0.3c-0.2,0.2-0.4-0.1-0.7,0c-0.1-0.1,0-0.2-0.2-0.3C80.3,46.6,80,46.3,79.8,46.6
			 M80.3,49.8c0.2,0.1,0.6-0.1,0.7,0.2c-0.1,0.1-0.2,0.3-0.1,0.5c0.1,0.2,0.2,0.5,0.5,0.6c0.1,0.1,0.2,0.1,0.3,0.2
			c-0.5,0.1-1,0.1-1.5,0.2C80.2,50.8,80.2,50.3,80.3,49.8l-0.2-0.1C80.2,49.7,80.2,49.7,80.3,49.8 M80.3,53.8l-0.1,0.1
			c0-0.6,0-1.3,0-2c0.3,0.1,0.6,0,1,0l1-0.2c0.5,0.1,0.8,0.9,1.3,0.4c0.2-0.2,0.5-0.2,0.6-0.5c0.3-0.1,0.4-0.4,0.6-0.6
			c0.2-0.6,0.9-0.7,1.3-1.1c0.3-0.3,0.7-0.5,0.9-0.8l0,0.2l1.3,1.3C85.9,52.5,83.3,53.7,80.3,53.8 M91.8,42.3
			c-0.1,2.9-1.2,5.5-3.1,7.7l-0.1,0.1c-0.4-0.4-0.9-1-1.4-1.4c0.3-0.2,0.5-0.5,0.7-0.8c1.2-1.6,1.9-3.5,2-5.6l-0.1-0.2l0.1,0.1
			l1.8,0l0.1,0L91.8,42.3z"/>
		<path class="st1" d="M85.4,32.4c0,0.1,0,0.1,0,0.2c0.3,0.1,0.3,0.5,0.6,0.4c0.1-0.1-0.1-0.2,0-0.4c0-0.1-0.2-0.2-0.3-0.2
			C85.7,32.5,85.5,32.3,85.4,32.4z"/>
		<path class="st1" d="M80.4,31.4c0.3,0.4,0.9,0.2,1.3,0.1c0.3,0.1,0.6,0,0.8-0.2v0c-0.2-0.3-0.6-0.3-1-0.4l-0.9,0.4
			c-0.1,0-0.2-0.1-0.3,0C80.3,31.3,80.4,31.3,80.4,31.4z"/>
	</g>
	<path class="st0" d="M194.9,44.3c0,24.5-19.8,44.3-44.3,44.3c-24.5,0-44.3-19.8-44.3-44.3S126.2,0,150.7,0
		C175.1,0,194.9,19.8,194.9,44.3z"/>
	<polygon class="st2" points="125.5,59.1 131,59.1 131,42.5 138.6,59.1 144.1,59.1 144.1,29.5 138.6,29.5 138.6,46.1 131,29.5 
		125.5,29.5 	"/>
	<polygon class="st2" points="160.5,29.5 146,29.5 146,59.1 151.5,59.1 151.5,47 158.2,47 158.2,41.5 151.5,41.5 151.5,34.9 
		160.5,34.9 	"/>
	<path class="st2" d="M111.6,50.9c0,1.8,1.5,3.3,3.2,3.3c1.8,0,3.3-1.5,3.3-3.3l0-21.4h5.5v21.4c0,4.8-3.9,8.7-8.7,8.7
		c-4.8,0-8.7-3.9-8.7-8.7V29.5h5.5L111.6,50.9z"/>
	<g>
		<path class="st2" d="M170.5,48.8c4.9,0,8.8-4,8.8-8.8v-1.6c0-4.9-4-8.8-8.8-8.8h-8.1v29.7h5.5V48.8H170.5z"/>
	</g>
	<g>
		<path class="st0" d="M170.1,43.3c2.1,0,3.8-1.7,3.8-3.8v-0.7c0-2.1-1.7-3.8-3.8-3.8h-2.2v8.4L170.1,43.3z"/>
	</g>
	<path class="st2" d="M190.9,29.5h-7l-7.3,29.6h5.6l1.7-6.7h7l1.7,6.7h5.6L190.9,29.5z M185.2,46.9l2.2-9l2.2,9H185.2z"/>
</g>
</svg>
