<?xml version="1.0" encoding="utf-8"?>
<!-- Generator: Adobe Illustrator 25.2.1, SVG Export Plug-In . SVG Version: 6.00 Build 0)  -->
<svg version="1.1" id="Layer_1" xmlns="http://www.w3.org/2000/svg" xmlns:xlink="http://www.w3.org/1999/xlink" x="0px" y="0px"
	 viewBox="0 0 198.1 183.8" style="enable-background:new 0 0 198.1 183.8;" xml:space="preserve">
<style type="text/css">
	.st0{fill:#FFFFFF;}
	.st1{fill:#1B4B8C;}
	.st2{fill:#FFCC05;}
	.st3{fill:#231F20;}
</style>
<g>
	<g>
		<g>
			<g>
				<g>
					<g>
						<rect x="4.2" class="st0" width="189.4" height="128.7"/>
						<path class="st0" d="M98.9,65.5"/>
					</g>
					<g>
						<rect x="7.9" y="3.5" class="st1" width="182.1" height="121.4"/>
						<path class="st1" d="M98.9,64.2"/>
					</g>
				</g>
				<g>
					<polygon class="st2" points="95.4,31.7 99.2,28.9 103,31.7 101.6,27.2 105.4,24.4 100.7,24.4 99.2,19.9 97.7,24.4 93,24.4 
						96.8,27.2 					"/>
					<polygon class="st2" points="75.6,37 79.4,34.2 83.3,37 81.8,32.5 85.7,29.7 80.9,29.7 79.4,25.2 78,29.7 73.2,29.7 77.1,32.5 
											"/>
					<polygon class="st2" points="65,39.7 63.5,44.2 58.8,44.2 62.6,47 61.2,51.5 65,48.7 68.8,51.5 67.4,47 71.2,44.2 66.5,44.2 
											"/>
					<polygon class="st2" points="59.7,68.5 63.5,71.2 62.1,66.7 65.9,63.9 61.2,63.9 59.7,59.4 58.2,64 53.4,63.9 57.3,66.7 
						55.9,71.2 					"/>
					<polygon class="st2" points="66.5,83.7 65,79.2 63.5,83.7 58.8,83.7 62.6,86.5 61.2,91 65,88.2 68.8,91 67.4,86.5 71.2,83.7 
											"/>
					<polygon class="st2" points="80.9,98.2 79.5,93.7 78,98.2 73.2,98.2 77.1,101 75.7,105.5 79.5,102.7 83.3,105.5 81.8,101 
						85.7,98.2 					"/>
					<polygon class="st2" points="100.7,103.5 99.2,98.9 97.7,103.5 93,103.5 96.8,106.3 95.4,110.8 99.2,108 103,110.8 
						101.6,106.3 105.4,103.5 					"/>
					<polygon class="st2" points="120.4,98.2 118.9,93.7 117.5,98.2 112.7,98.2 116.6,101 115.1,105.5 118.9,102.7 122.8,105.5 
						121.3,101 125.2,98.2 					"/>
					<polygon class="st2" points="134.9,83.7 133.4,79.2 132,83.7 127.2,83.7 131.1,86.5 129.6,91 133.4,88.2 137.2,91 135.8,86.5 
						139.7,83.7 					"/>
					<polygon class="st2" points="144.9,63.9 140.1,63.9 138.7,59.3 137.2,63.9 132.4,63.9 136.3,66.7 134.8,71.2 138.7,68.4 
						142.5,71.2 141,66.7 					"/>
					<polygon class="st2" points="129.6,51.4 133.4,48.7 137.2,51.4 135.8,46.9 139.7,44.2 134.9,44.2 133.4,39.6 132,44.2 
						127.2,44.2 131.1,46.9 					"/>
					<polygon class="st2" points="119,25.2 117.5,29.7 112.8,29.7 116.6,32.5 115.2,37 119,34.2 122.8,37 121.4,32.5 125.2,29.7 
						120.5,29.7 					"/>
				</g>
			</g>
		</g>
	</g>
	<g>
		<path class="st3" d="M0.7,153.4v-15.5h5.9c1,0,1.8,0,2.4,0.1c0.8,0.1,1.4,0.4,1.9,0.7c0.5,0.4,0.9,0.9,1.2,1.5
			c0.3,0.6,0.5,1.4,0.5,2.1c0,1.3-0.4,2.4-1.3,3.4c-0.8,0.9-2.4,1.4-4.6,1.4h-4v6.3H0.7z M2.8,145.2h4c1.3,0,2.3-0.2,2.8-0.7
			c0.6-0.5,0.8-1.2,0.8-2.1c0-0.6-0.2-1.2-0.5-1.7c-0.3-0.5-0.8-0.8-1.3-0.9c-0.3-0.1-1-0.1-1.9-0.1h-4V145.2z"/>
		<path class="st3" d="M15.4,153.4v-11.3h1.7v1.7c0.4-0.8,0.8-1.3,1.2-1.6c0.4-0.3,0.8-0.4,1.2-0.4c0.6,0,1.3,0.2,2,0.6l-0.7,1.8
			c-0.5-0.3-0.9-0.4-1.4-0.4c-0.4,0-0.8,0.1-1.1,0.4s-0.6,0.6-0.7,1c-0.2,0.7-0.3,1.4-0.3,2.2v5.9H15.4z"/>
		<path class="st3" d="M22.4,147.8c0-2.1,0.6-3.6,1.7-4.6c1-0.8,2.1-1.3,3.5-1.3c1.5,0,2.8,0.5,3.8,1.5c1,1,1.5,2.4,1.5,4.2
			c0,1.5-0.2,2.6-0.7,3.4c-0.4,0.8-1.1,1.5-1.9,1.9c-0.8,0.5-1.7,0.7-2.7,0.7c-1.6,0-2.9-0.5-3.8-1.5
			C22.9,151.1,22.4,149.7,22.4,147.8z M24.4,147.8c0,1.4,0.3,2.5,0.9,3.2c0.6,0.7,1.4,1.1,2.4,1.1c0.9,0,1.7-0.4,2.4-1.1
			s0.9-1.8,0.9-3.3c0-1.4-0.3-2.4-0.9-3.2c-0.6-0.7-1.4-1.1-2.4-1.1c-1,0-1.7,0.4-2.4,1.1C24.7,145.2,24.4,146.3,24.4,147.8z"/>
		<path class="st3" d="M35.3,154.3l1.9,0.3c0.1,0.6,0.3,1,0.6,1.3c0.5,0.4,1.1,0.5,1.9,0.5c0.9,0,1.6-0.2,2-0.5
			c0.5-0.4,0.8-0.8,1-1.5c0.1-0.4,0.1-1.2,0.1-2.4c-0.8,1-1.9,1.5-3.1,1.5c-1.5,0-2.7-0.6-3.6-1.7c-0.8-1.1-1.3-2.5-1.3-4
			c0-1.1,0.2-2.1,0.6-3c0.4-0.9,1-1.6,1.7-2.1c0.7-0.5,1.6-0.7,2.6-0.7c1.3,0,2.4,0.5,3.3,1.6v-1.4h1.8v9.7c0,1.8-0.2,3-0.5,3.7
			c-0.4,0.7-0.9,1.3-1.7,1.7c-0.8,0.4-1.7,0.6-2.9,0.6c-1.3,0-2.4-0.3-3.3-0.9C35.7,156.5,35.3,155.5,35.3,154.3z M36.9,147.6
			c0,1.5,0.3,2.6,0.9,3.2c0.6,0.7,1.3,1,2.2,1c0.9,0,1.6-0.3,2.2-1c0.6-0.7,0.9-1.7,0.9-3.2c0-1.4-0.3-2.4-0.9-3.1
			c-0.6-0.7-1.3-1-2.2-1c-0.8,0-1.6,0.3-2.2,1C37.2,145.2,36.9,146.2,36.9,147.6z"/>
		<path class="st3" d="M48.2,153.4v-11.3h1.7v1.7c0.4-0.8,0.8-1.3,1.2-1.6c0.4-0.3,0.8-0.4,1.2-0.4c0.6,0,1.3,0.2,2,0.6l-0.7,1.8
			c-0.5-0.3-0.9-0.4-1.4-0.4c-0.4,0-0.8,0.1-1.1,0.4s-0.6,0.6-0.7,1c-0.2,0.7-0.3,1.4-0.3,2.2v5.9H48.2z"/>
		<path class="st3" d="M63.3,152c-0.7,0.6-1.4,1-2,1.3c-0.7,0.2-1.4,0.4-2.1,0.4c-1.2,0-2.2-0.3-2.9-0.9c-0.7-0.6-1-1.4-1-2.3
			c0-0.6,0.1-1.1,0.4-1.5c0.3-0.5,0.6-0.8,1-1.1c0.4-0.3,0.9-0.5,1.4-0.6c0.4-0.1,0.9-0.2,1.7-0.3c1.5-0.2,2.7-0.4,3.4-0.7
			c0-0.3,0-0.4,0-0.5c0-0.8-0.2-1.3-0.5-1.6c-0.5-0.4-1.2-0.6-2.2-0.6c-0.9,0-1.6,0.2-2,0.5c-0.4,0.3-0.7,0.9-0.9,1.7l-1.9-0.3
			c0.2-0.8,0.4-1.4,0.8-1.9c0.4-0.5,1-0.9,1.7-1.1c0.7-0.3,1.6-0.4,2.6-0.4c1,0,1.7,0.1,2.3,0.3c0.6,0.2,1,0.5,1.3,0.9
			c0.3,0.3,0.5,0.8,0.6,1.3c0.1,0.3,0.1,0.9,0.1,1.8v2.5c0,1.8,0,2.9,0.1,3.4c0.1,0.5,0.2,0.9,0.5,1.4h-2
			C63.5,153,63.4,152.5,63.3,152z M63.1,147.7c-0.7,0.3-1.7,0.5-3.1,0.7c-0.8,0.1-1.3,0.2-1.7,0.4c-0.3,0.1-0.6,0.3-0.8,0.6
			c-0.2,0.3-0.3,0.6-0.3,0.9c0,0.5,0.2,0.9,0.6,1.3s0.9,0.5,1.7,0.5c0.7,0,1.4-0.2,2-0.5c0.6-0.3,1-0.8,1.3-1.3
			c0.2-0.4,0.3-1.1,0.3-1.9V147.7z"/>
		<path class="st3" d="M68.5,153.4v-11.3h1.7v1.6c0.4-0.6,0.8-1,1.4-1.3c0.6-0.3,1.3-0.5,2-0.5c0.8,0,1.5,0.2,2.1,0.5
			c0.5,0.3,0.9,0.8,1.1,1.5c0.9-1.3,2-2,3.5-2c1.1,0,2,0.3,2.6,0.9c0.6,0.6,0.9,1.6,0.9,2.9v7.7h-1.9v-7.1c0-0.8-0.1-1.3-0.2-1.6
			c-0.1-0.3-0.3-0.6-0.7-0.8c-0.3-0.2-0.7-0.3-1.1-0.3c-0.8,0-1.4,0.3-2,0.8c-0.5,0.5-0.8,1.4-0.8,2.5v6.5h-1.9v-7.3
			c0-0.8-0.2-1.5-0.5-1.9c-0.3-0.4-0.8-0.6-1.5-0.6c-0.5,0-1,0.1-1.5,0.4s-0.8,0.7-1,1.2c-0.2,0.5-0.3,1.3-0.3,2.4v5.8H68.5z"/>
		<path class="st3" d="M94,153.4v-9.8h-1.7v-1.5H94v-1.2c0-0.8,0.1-1.3,0.2-1.7c0.2-0.5,0.5-0.9,1-1.2c0.5-0.3,1.1-0.5,1.9-0.5
			c0.5,0,1.1,0.1,1.8,0.2l-0.3,1.7c-0.4-0.1-0.8-0.1-1.1-0.1c-0.6,0-1,0.1-1.2,0.4c-0.2,0.2-0.4,0.7-0.4,1.4v1h2.2v1.5h-2.2v9.8H94z
			"/>
		<path class="st3" d="M100.1,140.1v-2.2h1.9v2.2H100.1z M100.1,153.4v-11.3h1.9v11.3H100.1z"/>
		<path class="st3" d="M105.4,153.4v-11.3h1.7v1.6c0.8-1.2,2-1.9,3.6-1.9c0.7,0,1.3,0.1,1.9,0.4c0.6,0.2,1,0.6,1.3,1
			c0.3,0.4,0.5,0.9,0.6,1.4c0.1,0.4,0.1,1,0.1,1.9v6.9h-1.9v-6.8c0-0.8-0.1-1.4-0.2-1.7c-0.1-0.4-0.4-0.7-0.8-0.9
			c-0.4-0.2-0.8-0.3-1.3-0.3c-0.8,0-1.5,0.3-2.1,0.8c-0.6,0.5-0.9,1.5-0.9,2.9v6.1H105.4z"/>
		<path class="st3" d="M125.3,152c-0.7,0.6-1.4,1-2,1.3c-0.7,0.2-1.4,0.4-2.1,0.4c-1.2,0-2.2-0.3-2.9-0.9c-0.7-0.6-1-1.4-1-2.3
			c0-0.6,0.1-1.1,0.4-1.5c0.3-0.5,0.6-0.8,1-1.1c0.4-0.3,0.9-0.5,1.4-0.6c0.4-0.1,0.9-0.2,1.7-0.3c1.5-0.2,2.7-0.4,3.4-0.7
			c0-0.3,0-0.4,0-0.5c0-0.8-0.2-1.3-0.5-1.6c-0.5-0.4-1.2-0.6-2.2-0.6c-0.9,0-1.6,0.2-2,0.5c-0.4,0.3-0.7,0.9-0.9,1.7l-1.9-0.3
			c0.2-0.8,0.4-1.4,0.8-1.9c0.4-0.5,1-0.9,1.7-1.1c0.7-0.3,1.6-0.4,2.6-0.4c1,0,1.7,0.1,2.3,0.3c0.6,0.2,1,0.5,1.3,0.9
			c0.3,0.3,0.5,0.8,0.6,1.3c0.1,0.3,0.1,0.9,0.1,1.8v2.5c0,1.8,0,2.9,0.1,3.4c0.1,0.5,0.2,0.9,0.5,1.4h-2
			C125.5,153,125.3,152.5,125.3,152z M125.1,147.7c-0.7,0.3-1.7,0.5-3.1,0.7c-0.8,0.1-1.3,0.2-1.7,0.4c-0.3,0.1-0.6,0.3-0.8,0.6
			c-0.2,0.3-0.3,0.6-0.3,0.9c0,0.5,0.2,0.9,0.6,1.3c0.4,0.3,0.9,0.5,1.7,0.5c0.7,0,1.4-0.2,2-0.5c0.6-0.3,1-0.8,1.3-1.3
			c0.2-0.4,0.3-1.1,0.3-1.9V147.7z"/>
		<path class="st3" d="M130.5,153.4v-11.3h1.7v1.6c0.8-1.2,2-1.9,3.6-1.9c0.7,0,1.3,0.1,1.9,0.4c0.6,0.2,1,0.6,1.3,1
			c0.3,0.4,0.5,0.9,0.6,1.4c0.1,0.4,0.1,1,0.1,1.9v6.9h-1.9v-6.8c0-0.8-0.1-1.4-0.2-1.7c-0.1-0.4-0.4-0.7-0.8-0.9
			c-0.4-0.2-0.8-0.3-1.3-0.3c-0.8,0-1.5,0.3-2.1,0.8c-0.6,0.5-0.9,1.5-0.9,2.9v6.1H130.5z"/>
		<path class="st3" d="M147.2,151.7l0.3,1.7c-0.5,0.1-1,0.2-1.4,0.2c-0.7,0-1.2-0.1-1.6-0.3c-0.4-0.2-0.7-0.5-0.8-0.9
			c-0.2-0.4-0.2-1.1-0.2-2.3v-6.5H142v-1.5h1.4v-2.8l1.9-1.1v3.9h1.9v1.5h-1.9v6.6c0,0.5,0,0.9,0.1,1c0.1,0.2,0.2,0.3,0.3,0.4
			c0.2,0.1,0.4,0.1,0.7,0.1C146.6,151.8,146.9,151.7,147.2,151.7z M144.5,156.6v-2h2v2c0,0.5-0.1,1-0.4,1.4c-0.3,0.4-0.7,0.8-1.2,1
			l-0.5-0.7c0.7-0.3,1-0.9,1.1-1.7H144.5z"/>
		<path class="st3" d="M156.9,152c-0.7,0.6-1.4,1-2,1.3c-0.7,0.2-1.4,0.4-2.1,0.4c-1.2,0-2.2-0.3-2.9-0.9c-0.7-0.6-1-1.4-1-2.3
			c0-0.6,0.1-1.1,0.4-1.5c0.3-0.5,0.6-0.8,1-1.1c0.4-0.3,0.9-0.5,1.4-0.6c0.4-0.1,0.9-0.2,1.7-0.3c1.5-0.2,2.7-0.4,3.4-0.7
			c0-0.3,0-0.4,0-0.5c0-0.8-0.2-1.3-0.5-1.6c-0.5-0.4-1.2-0.6-2.2-0.6c-0.9,0-1.6,0.2-2,0.5c-0.4,0.3-0.7,0.9-0.9,1.7l-1.9-0.3
			c0.2-0.8,0.4-1.4,0.8-1.9c0.4-0.5,1-0.9,1.7-1.1c0.7-0.3,1.6-0.4,2.6-0.4c1,0,1.7,0.1,2.3,0.3s1,0.5,1.3,0.9
			c0.3,0.3,0.5,0.8,0.6,1.3c0.1,0.3,0.1,0.9,0.1,1.8v2.5c0,1.8,0,2.9,0.1,3.4c0.1,0.5,0.2,0.9,0.5,1.4h-2
			C157.1,153,156.9,152.5,156.9,152z M156.7,147.7c-0.7,0.3-1.7,0.5-3.1,0.7c-0.8,0.1-1.3,0.2-1.7,0.4c-0.3,0.1-0.6,0.3-0.8,0.6
			c-0.2,0.3-0.3,0.6-0.3,0.9c0,0.5,0.2,0.9,0.6,1.3c0.4,0.3,0.9,0.5,1.7,0.5c0.7,0,1.4-0.2,2-0.5c0.6-0.3,1-0.8,1.3-1.3
			c0.2-0.4,0.3-1.1,0.3-1.9V147.7z"/>
		<path class="st3" d="M166.3,151.7l0.3,1.7c-0.5,0.1-1,0.2-1.4,0.2c-0.7,0-1.2-0.1-1.6-0.3c-0.4-0.2-0.7-0.5-0.8-0.9
			c-0.2-0.4-0.2-1.1-0.2-2.3v-6.5H161v-1.5h1.4v-2.8l1.9-1.1v3.9h1.9v1.5h-1.9v6.6c0,0.5,0,0.9,0.1,1c0.1,0.2,0.2,0.3,0.3,0.4
			c0.2,0.1,0.4,0.1,0.7,0.1C165.6,151.8,165.9,151.7,166.3,151.7z"/>
		<path class="st3" d="M182.4,153.4V152c-0.7,1.1-1.8,1.7-3.1,1.7c-0.9,0-1.7-0.2-2.5-0.7c-0.8-0.5-1.3-1.2-1.7-2.1
			s-0.6-1.9-0.6-3.1c0-1.1,0.2-2.1,0.6-3.1c0.4-0.9,0.9-1.6,1.7-2.1c0.7-0.5,1.6-0.7,2.5-0.7c0.7,0,1.3,0.1,1.8,0.4
			c0.5,0.3,1,0.7,1.3,1.1v-5.6h1.9v15.5H182.4z M176.4,147.8c0,1.4,0.3,2.5,0.9,3.2c0.6,0.7,1.3,1.1,2.2,1.1c0.8,0,1.5-0.3,2.1-1
			c0.6-0.7,0.9-1.7,0.9-3.1c0-1.5-0.3-2.7-0.9-3.4s-1.3-1.1-2.2-1.1c-0.8,0-1.6,0.3-2.1,1C176.7,145.2,176.4,146.3,176.4,147.8z"/>
		<path class="st3" d="M195.4,149.8l2,0.2c-0.3,1.2-0.9,2-1.7,2.7c-0.8,0.6-1.9,1-3.2,1c-1.6,0-3-0.5-3.9-1.5c-1-1-1.4-2.4-1.4-4.3
			c0-1.9,0.5-3.4,1.5-4.4c1-1,2.2-1.6,3.8-1.6c1.5,0,2.7,0.5,3.7,1.5c1,1,1.4,2.5,1.4,4.3c0,0.1,0,0.3,0,0.5H189
			c0.1,1.2,0.4,2.2,1,2.8s1.4,1,2.4,1c0.7,0,1.3-0.2,1.8-0.6C194.7,151.2,195.1,150.6,195.4,149.8z M189.1,146.7h6.3
			c-0.1-0.9-0.3-1.7-0.7-2.1c-0.6-0.7-1.4-1.1-2.4-1.1c-0.9,0-1.6,0.3-2.2,0.9C189.5,144.9,189.2,145.7,189.1,146.7z"/>
		<path class="st3" d="M10.2,163.9h2.1v9c0,1.6-0.2,2.8-0.5,3.7c-0.4,0.9-1,1.7-1.9,2.2c-0.9,0.6-2.1,0.9-3.6,0.9
			c-1.5,0-2.6-0.3-3.6-0.8c-0.9-0.5-1.6-1.2-2-2.2c-0.4-1-0.6-2.2-0.6-3.9v-9h2.1v9c0,1.4,0.1,2.3,0.4,3c0.3,0.6,0.7,1.1,1.3,1.5
			s1.4,0.5,2.2,0.5c1.5,0,2.6-0.3,3.2-1c0.6-0.7,1-2,1-4V163.9z"/>
		<path class="st3" d="M15.9,179.4v-11.3h1.7v1.6c0.8-1.2,2-1.9,3.6-1.9c0.7,0,1.3,0.1,1.9,0.4c0.6,0.2,1,0.6,1.3,1
			c0.3,0.4,0.5,0.9,0.6,1.4c0.1,0.4,0.1,1,0.1,1.9v6.9h-1.9v-6.8c0-0.8-0.1-1.4-0.2-1.7c-0.1-0.4-0.4-0.7-0.8-0.9
			c-0.4-0.2-0.8-0.3-1.3-0.3c-0.8,0-1.5,0.3-2.1,0.8c-0.6,0.5-0.9,1.5-0.9,2.9v6.1H15.9z"/>
		<path class="st3" d="M28.4,166.1v-2.2h1.9v2.2H28.4z M28.4,179.4v-11.3h1.9v11.3H28.4z"/>
		<path class="st3" d="M41.1,179.4v-1.7c-0.9,1.3-2.1,1.9-3.6,1.9c-0.7,0-1.3-0.1-1.9-0.4c-0.6-0.3-1-0.6-1.3-1
			c-0.3-0.4-0.5-0.9-0.6-1.4c-0.1-0.4-0.1-1-0.1-1.8v-7h1.9v6.2c0,1,0,1.7,0.1,2c0.1,0.5,0.4,0.9,0.8,1.2c0.4,0.3,0.9,0.4,1.4,0.4
			c0.6,0,1.1-0.1,1.6-0.4c0.5-0.3,0.9-0.7,1.1-1.2s0.3-1.2,0.3-2.2v-6h1.9v11.3H41.1z"/>
		<path class="st3" d="M46.3,179.4v-11.3H48v1.6c0.8-1.2,2-1.9,3.6-1.9c0.7,0,1.3,0.1,1.9,0.4c0.6,0.2,1,0.6,1.3,1
			c0.3,0.4,0.5,0.9,0.6,1.4c0.1,0.4,0.1,1,0.1,1.9v6.9h-1.9v-6.8c0-0.8-0.1-1.4-0.2-1.7c-0.1-0.4-0.4-0.7-0.8-0.9
			c-0.4-0.2-0.8-0.3-1.3-0.3c-0.8,0-1.5,0.3-2.1,0.8c-0.6,0.5-0.9,1.5-0.9,2.9v6.1H46.3z"/>
		<path class="st3" d="M66.5,175.8l2,0.2c-0.3,1.2-0.9,2-1.7,2.7c-0.8,0.6-1.9,1-3.2,1c-1.6,0-3-0.5-3.9-1.5c-1-1-1.4-2.4-1.4-4.3
			c0-1.9,0.5-3.4,1.5-4.4c1-1,2.2-1.6,3.8-1.6c1.5,0,2.7,0.5,3.7,1.5c1,1,1.4,2.5,1.4,4.3c0,0.1,0,0.3,0,0.5h-8.4
			c0.1,1.2,0.4,2.2,1,2.8c0.6,0.7,1.4,1,2.4,1c0.7,0,1.3-0.2,1.8-0.6C65.9,177.2,66.3,176.6,66.5,175.8z M60.3,172.7h6.3
			c-0.1-0.9-0.3-1.7-0.7-2.1c-0.6-0.7-1.4-1.1-2.4-1.1c-0.9,0-1.6,0.3-2.2,0.9C60.7,171,60.3,171.8,60.3,172.7z"/>
		<path class="st3" d="M78.7,178.1c-0.7,0.6-1.4,1-2,1.3c-0.7,0.2-1.4,0.4-2.1,0.4c-1.2,0-2.2-0.3-2.9-0.9c-0.7-0.6-1-1.4-1-2.3
			c0-0.6,0.1-1.1,0.4-1.5c0.3-0.5,0.6-0.8,1-1.1c0.4-0.3,0.9-0.5,1.4-0.6c0.4-0.1,0.9-0.2,1.7-0.3c1.5-0.2,2.7-0.4,3.4-0.7
			c0-0.3,0-0.4,0-0.5c0-0.8-0.2-1.3-0.5-1.6c-0.5-0.4-1.2-0.6-2.2-0.6c-0.9,0-1.6,0.2-2,0.5s-0.7,0.9-0.9,1.7l-1.9-0.3
			c0.2-0.8,0.4-1.4,0.8-1.9c0.4-0.5,1-0.9,1.7-1.1c0.7-0.3,1.6-0.4,2.6-0.4c1,0,1.7,0.1,2.3,0.3s1,0.5,1.3,0.9
			c0.3,0.3,0.5,0.8,0.6,1.3c0.1,0.3,0.1,0.9,0.1,1.8v2.5c0,1.8,0,2.9,0.1,3.4c0.1,0.5,0.2,0.9,0.5,1.4h-2
			C78.9,179.1,78.8,178.6,78.7,178.1z M78.6,173.8c-0.7,0.3-1.7,0.5-3.1,0.7c-0.8,0.1-1.3,0.2-1.7,0.4c-0.3,0.1-0.6,0.3-0.8,0.6
			c-0.2,0.3-0.3,0.6-0.3,0.9c0,0.5,0.2,0.9,0.6,1.3c0.4,0.3,0.9,0.5,1.7,0.5c0.7,0,1.4-0.2,2-0.5c0.6-0.3,1-0.8,1.3-1.3
			c0.2-0.4,0.3-1.1,0.3-1.9V173.8z"/>
		<path class="st3" d="M90.7,179.4v-15.5H102v1.8h-9.2v4.8h8.6v1.8h-8.6v5.3h9.5v1.8H90.7z"/>
		<path class="st3" d="M112.8,179.4v-1.7c-0.9,1.3-2.1,1.9-3.6,1.9c-0.7,0-1.3-0.1-1.9-0.4c-0.6-0.3-1-0.6-1.3-1
			c-0.3-0.4-0.5-0.9-0.6-1.4c-0.1-0.4-0.1-1-0.1-1.8v-7h1.9v6.2c0,1,0,1.7,0.1,2c0.1,0.5,0.4,0.9,0.8,1.2c0.4,0.3,0.9,0.4,1.4,0.4
			c0.6,0,1.1-0.1,1.6-0.4c0.5-0.3,0.9-0.7,1.1-1.2s0.3-1.2,0.3-2.2v-6h1.9v11.3H112.8z"/>
		<path class="st3" d="M117.9,179.4v-11.3h1.7v1.7c0.4-0.8,0.8-1.3,1.2-1.6s0.8-0.4,1.2-0.4c0.6,0,1.3,0.2,2,0.6l-0.7,1.8
			c-0.5-0.3-0.9-0.4-1.4-0.4c-0.4,0-0.8,0.1-1.1,0.4c-0.3,0.3-0.6,0.6-0.7,1c-0.2,0.7-0.3,1.4-0.3,2.2v5.9H117.9z"/>
		<path class="st3" d="M125,173.8c0-2.1,0.6-3.6,1.7-4.6c1-0.8,2.1-1.3,3.5-1.3c1.5,0,2.8,0.5,3.8,1.5c1,1,1.5,2.4,1.5,4.2
			c0,1.5-0.2,2.6-0.7,3.4c-0.4,0.8-1.1,1.5-1.9,1.9c-0.8,0.5-1.7,0.7-2.7,0.7c-1.6,0-2.9-0.5-3.8-1.5
			C125.4,177.2,125,175.7,125,173.8z M126.9,173.8c0,1.4,0.3,2.5,0.9,3.2c0.6,0.7,1.4,1.1,2.4,1.1c0.9,0,1.7-0.4,2.4-1.1
			c0.6-0.7,0.9-1.8,0.9-3.3c0-1.4-0.3-2.4-0.9-3.2c-0.6-0.7-1.4-1.1-2.4-1.1c-1,0-1.7,0.4-2.4,1.1
			C127.2,171.3,126.9,172.4,126.9,173.8z"/>
		<path class="st3" d="M138.2,183.8v-15.6h1.7v1.5c0.4-0.6,0.9-1,1.4-1.3c0.5-0.3,1.1-0.4,1.9-0.4c1,0,1.8,0.2,2.5,0.7
			s1.3,1.2,1.7,2.1c0.4,0.9,0.6,1.9,0.6,3c0,1.2-0.2,2.2-0.6,3.1s-1,1.6-1.8,2.1c-0.8,0.5-1.6,0.7-2.5,0.7c-0.6,0-1.2-0.1-1.7-0.4
			c-0.5-0.3-0.9-0.6-1.2-1v5.5H138.2z M139.9,173.9c0,1.5,0.3,2.5,0.9,3.2c0.6,0.7,1.3,1,2.1,1c0.8,0,1.6-0.4,2.2-1.1
			c0.6-0.7,0.9-1.8,0.9-3.3c0-1.4-0.3-2.5-0.9-3.2c-0.6-0.7-1.3-1.1-2.1-1.1c-0.8,0-1.5,0.4-2.2,1.1
			C140.3,171.3,139.9,172.4,139.9,173.9z"/>
		<path class="st3" d="M158.5,175.8l2,0.2c-0.3,1.2-0.9,2-1.7,2.7c-0.8,0.6-1.9,1-3.2,1c-1.6,0-3-0.5-3.9-1.5c-1-1-1.4-2.4-1.4-4.3
			c0-1.9,0.5-3.4,1.5-4.4c1-1,2.2-1.6,3.8-1.6c1.5,0,2.7,0.5,3.7,1.5c1,1,1.4,2.5,1.4,4.3c0,0.1,0,0.3,0,0.5h-8.4
			c0.1,1.2,0.4,2.2,1,2.8c0.6,0.7,1.4,1,2.4,1c0.7,0,1.3-0.2,1.8-0.6C157.8,177.2,158.2,176.6,158.5,175.8z M152.2,172.7h6.3
			c-0.1-0.9-0.3-1.7-0.7-2.1c-0.6-0.7-1.4-1.1-2.4-1.1c-0.9,0-1.6,0.3-2.2,0.9C152.6,171,152.3,171.8,152.2,172.7z"/>
		<path class="st3" d="M170.7,178.1c-0.7,0.6-1.4,1-2,1.3c-0.7,0.2-1.4,0.4-2.1,0.4c-1.2,0-2.2-0.3-2.9-0.9c-0.7-0.6-1-1.4-1-2.3
			c0-0.6,0.1-1.1,0.4-1.5c0.3-0.5,0.6-0.8,1-1.1c0.4-0.3,0.9-0.5,1.4-0.6c0.4-0.1,0.9-0.2,1.7-0.3c1.5-0.2,2.7-0.4,3.4-0.7
			c0-0.3,0-0.4,0-0.5c0-0.8-0.2-1.3-0.5-1.6c-0.5-0.4-1.2-0.6-2.2-0.6c-0.9,0-1.6,0.2-2,0.5c-0.4,0.3-0.7,0.9-0.9,1.7l-1.9-0.3
			c0.2-0.8,0.4-1.4,0.8-1.9c0.4-0.5,1-0.9,1.7-1.1c0.7-0.3,1.6-0.4,2.6-0.4c1,0,1.7,0.1,2.3,0.3s1,0.5,1.3,0.9
			c0.3,0.3,0.5,0.8,0.6,1.3c0.1,0.3,0.1,0.9,0.1,1.8v2.5c0,1.8,0,2.9,0.1,3.4s0.2,0.9,0.5,1.4h-2
			C170.8,179.1,170.7,178.6,170.7,178.1z M170.5,173.8c-0.7,0.3-1.7,0.5-3.1,0.7c-0.8,0.1-1.3,0.2-1.7,0.4c-0.3,0.1-0.6,0.3-0.8,0.6
			c-0.2,0.3-0.3,0.6-0.3,0.9c0,0.5,0.2,0.9,0.6,1.3c0.4,0.3,0.9,0.5,1.7,0.5c0.7,0,1.4-0.2,2-0.5c0.6-0.3,1-0.8,1.3-1.3
			c0.2-0.4,0.3-1.1,0.3-1.9V173.8z"/>
		<path class="st3" d="M175.9,179.4v-11.3h1.7v1.6c0.8-1.2,2-1.9,3.6-1.9c0.7,0,1.3,0.1,1.9,0.4c0.6,0.2,1,0.6,1.3,1
			c0.3,0.4,0.5,0.9,0.6,1.4c0.1,0.4,0.1,1,0.1,1.9v6.9h-1.9v-6.8c0-0.8-0.1-1.4-0.2-1.7c-0.1-0.4-0.4-0.7-0.8-0.9
			c-0.4-0.2-0.8-0.3-1.3-0.3c-0.8,0-1.5,0.3-2.1,0.8c-0.6,0.5-0.9,1.5-0.9,2.9v6.1H175.9z"/>
		<path class="st3" d="M195.8,178.1c-0.7,0.6-1.4,1-2,1.3c-0.7,0.2-1.4,0.4-2.1,0.4c-1.2,0-2.2-0.3-2.9-0.9c-0.7-0.6-1-1.4-1-2.3
			c0-0.6,0.1-1.1,0.4-1.5c0.3-0.5,0.6-0.8,1-1.1c0.4-0.3,0.9-0.5,1.4-0.6c0.4-0.1,0.9-0.2,1.7-0.3c1.5-0.2,2.7-0.4,3.4-0.7
			c0-0.3,0-0.4,0-0.5c0-0.8-0.2-1.3-0.5-1.6c-0.5-0.4-1.2-0.6-2.2-0.6c-0.9,0-1.6,0.2-2,0.5c-0.4,0.3-0.7,0.9-0.9,1.7l-1.9-0.3
			c0.2-0.8,0.4-1.4,0.8-1.9c0.4-0.5,1-0.9,1.7-1.1c0.7-0.3,1.6-0.4,2.6-0.4c1,0,1.7,0.1,2.3,0.3s1,0.5,1.3,0.9
			c0.3,0.3,0.5,0.8,0.6,1.3c0.1,0.3,0.1,0.9,0.1,1.8v2.5c0,1.8,0,2.9,0.1,3.4s0.2,0.9,0.5,1.4h-2
			C195.9,179.1,195.8,178.6,195.8,178.1z M195.6,173.8c-0.7,0.3-1.7,0.5-3.1,0.7c-0.8,0.1-1.3,0.2-1.7,0.4c-0.3,0.1-0.6,0.3-0.8,0.6
			c-0.2,0.3-0.3,0.6-0.3,0.9c0,0.5,0.2,0.9,0.6,1.3c0.4,0.3,0.9,0.5,1.7,0.5c0.7,0,1.4-0.2,2-0.5c0.6-0.3,1-0.8,1.3-1.3
			c0.2-0.4,0.3-1.1,0.3-1.9V173.8z M195,163.9h1.3c-0.1,0.9-0.4,1.6-1,2c-0.5,0.5-1.3,0.7-2.2,0.7c-0.9,0-1.6-0.2-2.2-0.7
			c-0.5-0.5-0.9-1.1-1-2h1.3c0.1,0.5,0.3,0.8,0.6,1.1c0.3,0.2,0.7,0.4,1.2,0.4c0.6,0,1-0.1,1.3-0.3
			C194.7,164.8,194.9,164.4,195,163.9z"/>
	</g>
</g>
</svg>
