<?xml version="1.0" encoding="utf-8"?>
<!-- Generator: Adobe Illustrator 23.0.1, SVG Export Plug-In . SVG Version: 6.00 Build 0)  -->
<svg version="1.1" id="Layer_1" xmlns="http://www.w3.org/2000/svg" xmlns:xlink="http://www.w3.org/1999/xlink" x="0px" y="0px"
	 viewBox="0 0 500 500" style="enable-background:new 0 0 500 500;" xml:space="preserve">
<style type="text/css">
	.st0{fill:#414143;}
</style>
<path class="st0" d="M250,23.4c-80,0-109.4,39.4-109.4,68.5v48.7h101.6v15.6H91.9c-17.3,0-35,6.6-47.9,21.9S23.4,217,23.4,250
	s7.7,56.5,20.6,71.8s30.6,21.9,47.9,21.9h48.7v64.3c0,29.1,29.3,68.5,109.4,68.5s109.4-39.4,109.4-68.5v-48.7H257.8v-15.6h150.3
	c17.3,0,35-6.6,47.9-21.9s20.6-38.8,20.6-71.8s-7.7-56.5-20.6-71.8s-30.6-21.9-47.9-21.9h-48.7V91.9c0-14.9-7.3-32.4-24.8-45.8
	S290,23.4,250,23.4z M250,39.1c37.6,0,61.2,8.7,75.1,19.4s18.7,23.5,18.7,33.4v64.3h0v54c0,6.4-2.3,12.5-6.1,17.6
	c-5.1,6.8-12.9,11.9-21.4,13.7c-2.1,0.4-4.3,0.7-6.5,0.7H190.3c-26.1,0-49.7,20.9-49.7,47.6v38.3H91.9c-13.5,0-26.1-4.6-35.9-16.3
	s-17-31.2-17-61.8s7.2-50.1,17-61.8c9.8-11.7,22.4-16.3,35.9-16.3h165.9V125H156.3V91.9C156.3,73.3,174.9,39.1,250,39.1z M207,70.3
	c-10.8,0-19.5,8.7-19.5,19.5s8.7,19.5,19.5,19.5s19.5-8.7,19.5-19.5S217.8,70.3,207,70.3z M359.4,171.9h48.7
	c13.5,0,26.1,4.6,35.9,16.3c9.8,11.7,17,31.2,17,61.8s-7.2,50.1-17,61.8s-22.4,16.3-35.9,16.3H242.2V375h101.6v33.1
	c0,18.6-18.7,52.8-93.8,52.8s-93.8-34.2-93.8-52.8V289.8c0-2.1,0.3-4.2,0.7-6.3c3.4-14.3,17.9-25.7,33.3-25.7h119.3
	c1.6,0,3.3-0.1,4.9-0.2c9.6-1,18.7-4.7,26.2-10.5h0c1.2-1,2.4-2,3.6-3.1h0c9.2-8.6,15.1-20.5,15.1-33.8V171.9z M122.2,188
	c-4.3,0.1-7.7,3.6-7.7,7.9v15.6c-0.1,4.3,3.4,7.9,7.7,7.9c4.3,0.1,7.9-3.4,7.9-7.7c0-0.1,0-0.1,0-0.2V196c0.1-4.3-3.4-7.9-7.7-7.9
	C122.3,188,122.2,188,122.2,188z M157.8,188c-4.3,0.1-7.7,3.6-7.7,7.9v15.6c-0.1,4.3,3.4,7.9,7.7,7.9c4.3,0.1,7.9-3.4,7.9-7.7
	c0-0.1,0-0.1,0-0.2V196c0.1-4.3-3.4-7.9-7.7-7.9C158,188,157.9,188,157.8,188z M193.5,188c-4.3,0.1-7.7,3.6-7.7,7.9v15.6
	c-0.1,4.3,3.4,7.9,7.7,7.9c4.3,0.1,7.9-3.4,7.9-7.7c0-0.1,0-0.1,0-0.2V196c0.1-4.3-3.4-7.9-7.7-7.9C193.6,188,193.6,188,193.5,188z
	 M229.2,188c-4.3,0.1-7.7,3.6-7.7,7.9v15.6c-0.1,4.3,3.4,7.9,7.7,7.9c4.3,0.1,7.9-3.4,7.9-7.7c0-0.1,0-0.1,0-0.2V196
	c0.1-4.3-3.4-7.9-7.7-7.9C229.3,188,229.2,188,229.2,188z M294,281.1c-4.3,0.1-7.7,3.6-7.7,7.9v15.6c-0.1,4.3,3.4,7.9,7.7,7.9
	c4.3,0.1,7.9-3.4,7.9-7.7c0-0.1,0-0.1,0-0.2v-15.6c0.1-4.3-3.4-7.9-7.7-7.9C294.2,281.1,294.1,281.1,294,281.1z M329.7,281.1
	c-4.3,0.1-7.7,3.6-7.7,7.9v15.6c-0.1,4.3,3.4,7.9,7.7,7.9c4.3,0.1,7.9-3.4,7.9-7.7c0-0.1,0-0.1,0-0.2v-15.6c0.1-4.3-3.4-7.9-7.7-7.9
	C329.8,281.1,329.8,281.1,329.7,281.1z M365.4,281.1c-4.3,0.1-7.7,3.6-7.7,7.9v15.6c-0.1,4.3,3.4,7.9,7.7,7.9
	c4.3,0.1,7.9-3.4,7.9-7.7c0-0.1,0-0.1,0-0.2v-15.6c0.1-4.3-3.4-7.9-7.7-7.9C365.5,281.1,365.4,281.1,365.4,281.1z M401,281.1
	c-4.3,0.1-7.7,3.6-7.7,7.9v15.6c-0.1,4.3,3.4,7.9,7.7,7.9c4.3,0.1,7.9-3.4,7.9-7.7c0-0.1,0-0.1,0-0.2v-15.6c0.1-4.3-3.4-7.9-7.7-7.9
	C401.2,281.1,401.1,281.1,401,281.1z M300.8,390.6c-10.8,0-19.5,8.7-19.5,19.5s8.7,19.5,19.5,19.5s19.5-8.7,19.5-19.5
	S311.6,390.6,300.8,390.6z"/>
</svg>
