<?xml version="1.0" encoding="utf-8"?>
<!-- Generator: Adobe Illustrator 23.0.1, SVG Export Plug-In . SVG Version: 6.00 Build 0)  -->
<svg version="1.1" id="Layer_1" xmlns="http://www.w3.org/2000/svg" xmlns:xlink="http://www.w3.org/1999/xlink" x="0px" y="0px"
	 viewBox="0 0 500 500" style="enable-background:new 0 0 500 500;" xml:space="preserve">
<style type="text/css">
	.st0{fill:#414143;}
</style>
<path class="st0" d="M54.7,62.5c-12.9,0-23.4,10.5-23.4,23.4v328.1c0,12.9,10.5,23.4,23.4,23.4h390.6c12.9,0,23.4-10.5,23.4-23.4
	V85.9c0-12.9-10.5-23.4-23.4-23.4H54.7z M54.7,78.1h390.6c4.3,0,7.8,3.5,7.8,7.8v328.1c0,4.3-3.5,7.8-7.8,7.8H54.7
	c-4.3,0-7.8-3.5-7.8-7.8V156.3h320.3c4.3,0,7.8-3.5,7.8-7.8s-3.5-7.8-7.8-7.8H46.9V85.9C46.9,81.6,50.4,78.1,54.7,78.1z M78.1,93.8
	c-4.3,0-7.8,3.5-7.8,7.8v15.6c0,4.3,3.5,7.8,7.8,7.8c4.3,0,7.8-3.5,7.8-7.8v-15.6C85.9,97.3,82.5,93.8,78.1,93.8z M117.2,93.8
	c-4.3,0-7.8,3.5-7.8,7.8v15.6c0,4.3,3.5,7.8,7.8,7.8c4.3,0,7.8-3.5,7.8-7.8v-15.6C125,97.3,121.5,93.8,117.2,93.8z M156.3,93.8
	c-4.3,0-7.8,3.5-7.8,7.8v15.6c0,4.3,3.5,7.8,7.8,7.8s7.8-3.5,7.8-7.8v-15.6C164.1,97.3,160.6,93.8,156.3,93.8z M195.3,93.8
	c-4.3,0-7.8,3.5-7.8,7.8v15.6c0,4.3,3.5,7.8,7.8,7.8s7.8-3.5,7.8-7.8v-15.6C203.1,97.3,199.6,93.8,195.3,93.8z M234.4,93.8
	c-4.3,0-7.8,3.5-7.8,7.8v15.6c0,4.3,3.5,7.8,7.8,7.8s7.8-3.5,7.8-7.8v-15.6C242.2,97.3,238.7,93.8,234.4,93.8z M273.4,93.8
	c-4.3,0-7.8,3.5-7.8,7.8v15.6c0,4.3,3.5,7.8,7.8,7.8s7.8-3.5,7.8-7.8v-15.6C281.3,97.3,277.8,93.8,273.4,93.8z M312.5,93.8
	c-4.3,0-7.8,3.5-7.8,7.8v15.6c0,4.3,3.5,7.8,7.8,7.8s7.8-3.5,7.8-7.8v-15.6C320.3,97.3,316.8,93.8,312.5,93.8z M351.6,93.8
	c-4.3,0-7.8,3.5-7.8,7.8v15.6c0,4.3,3.5,7.8,7.8,7.8s7.8-3.5,7.8-7.8v-15.6C359.4,97.3,355.9,93.8,351.6,93.8z M390.6,93.8
	c-4.3,0-7.8,3.5-7.8,7.8v15.6c0,4.3,3.5,7.8,7.8,7.8s7.8-3.5,7.8-7.8v-15.6C398.4,97.3,395,93.8,390.6,93.8z M429.7,93.8
	c-4.3,0-7.8,3.5-7.8,7.8v15.6c0,4.3,3.5,7.8,7.8,7.8s7.8-3.5,7.8-7.8v-15.6C437.5,97.3,434,93.8,429.7,93.8z M398.4,140.6
	c-4.3,0-7.8,3.5-7.8,7.8s3.5,7.8,7.8,7.8h31.3c4.3,0,7.8-3.5,7.8-7.8s-3.5-7.8-7.8-7.8H398.4z M272.2,187.6c-3,0.5-5.6,2.7-6.3,5.8
	L219,380.9c-1.1,4.2,1.5,8.4,5.7,9.5c0.6,0.2,1.3,0.2,1.9,0.2c3.5,0,6.7-2.3,7.6-5.9L281,197.2c1.1-4.2-1.5-8.5-5.7-9.5
	C274.3,187.5,273.2,187.4,272.2,187.6z M179.7,234.4c-2,0-4,0.8-5.5,2.3l-46.9,46.9c-3.1,3.1-3.1,8,0,11l46.9,46.9
	c1.5,1.5,3.5,2.3,5.5,2.3s4-0.8,5.5-2.3c3.1-3.1,3.1-8,0-11l-41.4-41.4l41.4-41.4c3.1-3.1,3.1-8,0-11
	C183.7,235.1,181.7,234.4,179.7,234.4z M320.3,234.4c-2,0-4,0.8-5.5,2.3c-3.1,3.1-3.1,8,0,11l41.4,41.4l-41.4,41.4
	c-3.1,3.1-3.1,8,0,11c1.5,1.5,3.5,2.3,5.5,2.3s4-0.8,5.5-2.3l46.9-46.9c3.1-3.1,3.1-8,0-11l-46.9-46.9
	C324.3,235.1,322.3,234.4,320.3,234.4z"/>
</svg>
