<?xml version="1.0" encoding="utf-8"?>
<!-- Generator: Adobe Illustrator 23.0.1, SVG Export Plug-In . SVG Version: 6.00 Build 0)  -->
<svg version="1.1" id="Layer_1" xmlns="http://www.w3.org/2000/svg" xmlns:xlink="http://www.w3.org/1999/xlink" x="0px" y="0px"
	 viewBox="0 0 512 512" style="enable-background:new 0 0 512 512;" xml:space="preserve">
<style type="text/css">
	.st0{fill:#414143;}
</style>
<path class="st0" d="M248,16c-73.4,0-139,34.3-181.5,87.8c-0.4,0.4-0.9,0.8-1.2,1.3c-0.1,0.2-0.1,0.4-0.2,0.5
	C34.4,144.9,16,194.3,16,248c0,53.7,18.4,103.2,49.1,142.5c0.1,0.2,0.1,0.3,0.2,0.5c0.4,0.7,1,1.3,1.6,1.8
	C109.4,445.9,174.8,480,248,480c73.7,0,139.4-34.5,181.9-88.3c0.3-0.3,0.6-0.5,0.8-0.8c0.1-0.1,0.1-0.2,0.1-0.3
	C461.6,351.2,480,301.8,480,248c0-53.7-18.4-103.2-49.2-142.6c-0.1-0.1-0.1-0.3-0.2-0.4c-0.2-0.3-0.6-0.6-0.8-0.9
	C387.3,50.5,321.6,16,248,16z M240,32.6v111.3c-30.5-0.5-59.9-4.1-86.6-10.5C172.3,76.1,204.4,37.7,240,32.6z M256,32.6
	c35.5,5.1,67.8,43.5,86.6,100.8c-26.7,6.4-56.1,10-86.6,10.5V32.6z M191.3,39.6c-22.2,19.6-40.8,50.4-53.5,89.6
	c-19.8-5.8-37.9-13.1-53.5-21.9C112.1,75.1,149.1,51.1,191.3,39.6z M304.7,39.6c42.2,11.5,79.3,35.5,107,67.7
	c-15.6,8.8-33.7,16.1-53.5,21.9C345.5,90.1,326.9,59.2,304.7,39.6z M74.2,119.9c17.1,10,37.1,18.2,59.1,24.6
	c-3.3,12.1-6,24.8-8.2,38.2c-0.7,4.3,2.3,8.4,6.6,9.1c0.4,0.1,0.8,0.1,1.3,0.1c3.9,0,7.3-2.8,7.9-6.8c2-12.8,4.7-25,7.9-36.6
	c28.2,6.8,59.2,10.7,91.3,11.2V184c0,4.4,3.6,8,8,8c4.4,0,8-3.6,8-8v-24.1c32.1-0.5,63-4.4,91.2-11.2c3.2,11.6,5.9,23.8,7.9,36.6
	c0.7,4.3,4.8,7.4,9.2,6.6c4.4-0.7,7.3-4.8,6.6-9.1c-2.1-13.4-4.9-26.1-8.2-38.2c22-6.4,41.9-14.7,59-24.6
	C448.3,155.8,464,200.1,464,248s-15.7,92.2-42.2,128.1c-17.1-10-37.1-18.3-59.1-24.7c2.6-9.6,4.9-19.6,6.8-30
	c0.8-4.3-2.1-8.5-6.4-9.3s-8.5,2.1-9.3,6.4c-1.8,10-4,19.6-6.5,28.8c-28.2-6.8-59.2-10.7-91.3-11.2V320c0-4.4-3.6-8-8-8s-8,3.6-8,8
	v16.1c-32.1,0.5-63.1,4.4-91.3,11.2c-2.5-9.2-4.7-18.8-6.5-28.8c-0.8-4.3-5-7.2-9.3-6.4c-4.3,0.8-7.2,5-6.4,9.3
	c1.9,10.4,4.2,20.4,6.8,30c-22,6.4-42,14.7-59.1,24.6C47.7,340.2,32,295.9,32,248S47.7,155.8,74.2,119.9z M167.1,200
	c-3.1,0.3-5.8,2.5-6.8,5.7L143.2,263l-15.7-41.8c-1.2-3.1-4.2-5.2-7.5-5.2s-6.3,2.1-7.5,5.2L96.8,263l-17.2-57.3
	c-1.3-4.3-5.7-6.6-10-5.4c-4.2,1.3-6.6,5.7-5.3,9.9l24,80c1,3.3,3.9,5.6,7.4,5.7c3.6,0.3,6.6-2,7.8-5.2l16.5-44l16.5,44
	c1.2,3.1,4.2,5.2,7.5,5.2h0.3c3.5-0.1,6.4-2.4,7.4-5.7l24-80c1.3-4.2-1.1-8.7-5.4-9.9C169.2,200,168.2,199.9,167.1,200z M295.1,200
	c-3.1,0.3-5.8,2.5-6.8,5.7L271.2,263l-15.7-41.8c-1.2-3.1-4.2-5.2-7.5-5.2s-6.3,2.1-7.5,5.2L224.8,263l-17.2-57.3
	c-1.3-4.3-5.7-6.6-9.9-5.4c-4.3,1.3-6.6,5.7-5.4,9.9l24,80c1,3.3,3.9,5.6,7.4,5.7c3.4,0.3,6.5-2,7.8-5.2l16.5-44l16.5,44
	c1.2,3.1,4.2,5.2,7.5,5.2h0.3c3.5-0.1,6.4-2.4,7.4-5.7l24-80c1.3-4.2-1.1-8.7-5.4-9.9C297.2,200,296.2,199.9,295.1,200z M423.1,200
	c-3.1,0.3-5.8,2.5-6.8,5.7L399.2,263l-15.7-41.8c-1.2-3.1-4.2-5.2-7.5-5.2s-6.3,2.1-7.5,5.2L352.8,263l-17.2-57.3
	c-1.3-4.3-5.7-6.6-9.9-5.4c-4.3,1.3-6.6,5.7-5.4,9.9l24,80c1,3.3,3.9,5.6,7.4,5.7c3.6,0.3,6.6-2,7.8-5.2l16.5-44l16.5,44
	c1.2,3.1,4.2,5.2,7.5,5.2h0.3c3.5-0.1,6.4-2.4,7.4-5.7l24-80c1.3-4.2-1.1-8.7-5.4-9.9C425.2,200,424.2,199.9,423.1,200z M240,352.1
	v111.3c-35.8-5-67.9-43-86.8-100.8C180,356.3,209.4,352.7,240,352.1z M256,352.1c30.6,0.5,60,4.2,86.8,10.5
	c-18.9,57.8-51,95.8-86.8,100.7V352.1z M137.9,366.8c12.8,39.1,31.6,70.2,53.8,89.8c-42.4-11.4-79.6-35.5-107.5-67.8
	C99.9,379.8,118,372.5,137.9,366.8z M358.1,366.8c19.9,5.8,38,13.1,53.6,21.9c-27.9,32.4-65.1,56.4-107.5,67.8
	C326.5,436.9,345.3,405.9,358.1,366.8z"/>
</svg>
