<?xml version="1.0" encoding="utf-8"?>
<!-- Generator: Adobe Illustrator 24.1.3, SVG Export Plug-In . SVG Version: 6.00 Build 0)  -->
<svg version="1.1" id="Layer_1" xmlns="http://www.w3.org/2000/svg" xmlns:xlink="http://www.w3.org/1999/xlink" x="0px" y="0px"
	 viewBox="0 0 307 307" style="enable-background:new 0 0 307 307;" xml:space="preserve">
<style type="text/css">
	.st0{clip-path:url(#SVGID_2_);}
	.st1{clip-path:url(#SVGID_4_);fill:#1B1C20;}
	.st2{clip-path:url(#SVGID_6_);fill:#1B1C20;}
	.st3{clip-path:url(#SVGID_8_);fill:#1B1C20;}
	.st4{clip-path:url(#SVGID_10_);fill:#1B1C20;}
	.st5{clip-path:url(#SVGID_12_);fill:#1B1C20;}
	.st6{clip-path:url(#SVGID_14_);fill:#1B1C20;}
	.st7{clip-path:url(#SVGID_16_);fill:#1B1C20;}
	.st8{clip-path:url(#SVGID_18_);fill:#1B1C20;}
	.st9{clip-path:url(#SVGID_20_);fill:#1B1C20;}
	.st10{clip-path:url(#SVGID_22_);fill:#E9503E;}
</style>
<g id="Artwork_38_1_">
	<g>
		<g>
			<defs>
				<rect id="SVGID_1_" width="307" height="307"/>
			</defs>
			<clipPath id="SVGID_2_">
				<use xlink:href="#SVGID_1_"  style="overflow:visible;"/>
			</clipPath>
			<g class="st0">
				<g>
					<defs>
						<rect id="SVGID_3_" width="307" height="307"/>
					</defs>
					<clipPath id="SVGID_4_">
						<use xlink:href="#SVGID_3_"  style="overflow:visible;"/>
					</clipPath>
					<path class="st1" d="M65.6,238.8h-1.3c-1.1,0-1.4-0.2-1.6-0.8l-1.2-3.3h-7.1l-1.2,3.3c-0.2,0.6-0.5,0.8-1.6,0.8h-1.2
						c-0.6,0-0.8-0.3-0.6-0.8l6.4-16.7c0.2-0.6,0.5-0.7,1.1-0.7h1.4c0.6,0,0.9,0.1,1.1,0.7l6.4,16.7
						C66.4,238.5,66.3,238.8,65.6,238.8 M58,223.5h-0.2c0,0,0,1.5-0.6,3.1l-2,5.5h5.3l-2-5.4C58.1,225,58.1,223.5,58,223.5"/>
				</g>
				<g>
					<defs>
						<rect id="SVGID_5_" width="307" height="307"/>
					</defs>
					<clipPath id="SVGID_6_">
						<use xlink:href="#SVGID_5_"  style="overflow:visible;"/>
					</clipPath>
					<path class="st2" d="M78.3,221.4v1.3c0,0.6-0.2,0.9-0.9,0.9H73V238c0,0.6-0.2,0.9-0.9,0.9h-1.5c-0.6,0-0.9-0.2-0.9-0.9v-14.4
						h-4.4c-0.7,0-0.9-0.2-0.9-0.9v-1.3c0-0.6,0.2-0.9,0.9-0.9h12.1C78,220.5,78.3,220.7,78.3,221.4"/>
				</g>
				<g>
					<defs>
						<rect id="SVGID_7_" width="307" height="307"/>
					</defs>
					<clipPath id="SVGID_8_">
						<use xlink:href="#SVGID_7_"  style="overflow:visible;"/>
					</clipPath>
					<path class="st3" d="M92.4,221.4v1.3c0,0.6-0.2,0.9-0.9,0.9h-7.9v4.5h6.7c0.6,0,0.9,0.2,0.9,0.9v1.3c0,0.6-0.2,0.9-0.9,0.9
						h-6.7v4.7h8.2c0.7,0,0.9,0.2,0.9,0.9v1.3c0,0.6-0.2,0.9-0.9,0.9H81.3c-0.7,0-0.9-0.2-0.9-0.9v-16.5c0-0.6,0.2-0.9,0.9-0.9h10.2
						C92.2,220.5,92.4,220.7,92.4,221.4"/>
				</g>
				<g>
					<defs>
						<rect id="SVGID_9_" width="307" height="307"/>
					</defs>
					<clipPath id="SVGID_10_">
						<use xlink:href="#SVGID_9_"  style="overflow:visible;"/>
					</clipPath>
					<path class="st4" d="M98.3,221.4v14.4h7.4c0.6,0,0.9,0.2,0.9,0.9v1.3c0,0.6-0.2,0.9-0.9,0.9H96c-0.7,0-0.9-0.2-0.9-0.9v-16.5
						c0-0.6,0.2-0.9,0.9-0.9h1.5C98.1,220.5,98.3,220.7,98.3,221.4"/>
				</g>
				<g>
					<defs>
						<rect id="SVGID_11_" width="307" height="307"/>
					</defs>
					<clipPath id="SVGID_12_">
						<use xlink:href="#SVGID_11_"  style="overflow:visible;"/>
					</clipPath>
					<path class="st5" d="M109.6,220.5h1.5c0.6,0,0.9,0.2,0.9,0.9v16.5c0,0.6-0.2,0.9-0.9,0.9h-1.5c-0.7,0-0.9-0.2-0.9-0.9v-16.5
						C108.7,220.7,109,220.5,109.6,220.5"/>
				</g>
				<g>
					<defs>
						<rect id="SVGID_13_" width="307" height="307"/>
					</defs>
					<clipPath id="SVGID_14_">
						<use xlink:href="#SVGID_13_"  style="overflow:visible;"/>
					</clipPath>
					<path class="st6" d="M127.1,221.4v1.3c0,0.6-0.2,0.9-0.9,0.9h-7.9v4.5h6.7c0.6,0,0.9,0.2,0.9,0.9v1.3c0,0.6-0.2,0.9-0.9,0.9
						h-6.7v4.7h8.2c0.7,0,0.9,0.2,0.9,0.9v1.3c0,0.6-0.2,0.9-0.9,0.9H116c-0.7,0-0.9-0.2-0.9-0.9v-16.5c0-0.6,0.2-0.9,0.9-0.9h10.2
						C126.9,220.5,127.1,220.7,127.1,221.4"/>
				</g>
				<g>
					<defs>
						<rect id="SVGID_15_" width="307" height="307"/>
					</defs>
					<clipPath id="SVGID_16_">
						<use xlink:href="#SVGID_15_"  style="overflow:visible;"/>
					</clipPath>
					<path class="st7" d="M143.5,226.2c0,2.7-1.3,4.5-3.4,5.2c0.3,0.3,0.6,0.6,0.8,1.1l2.8,5.4c0.3,0.5,0.2,0.9-0.4,0.9h-1.5
						c-1.1,0-1.4-0.1-1.7-0.8l-2.2-4.4c-0.7-1.4-1.3-1.8-3.1-1.8H133v6.1c0,0.6-0.2,0.9-0.9,0.9h-1.5c-0.7,0-0.9-0.2-0.9-0.9v-16.5
						c0-0.6,0.2-0.9,0.9-0.9h7.1C141.3,220.5,143.5,222.6,143.5,226.2 M137.4,223.5H133v5.3h4.4c1.7,0,2.7-0.9,2.7-2.6
						C140.1,224.5,139.2,223.5,137.4,223.5"/>
				</g>
				<g>
					<defs>
						<rect id="SVGID_17_" width="307" height="307"/>
					</defs>
					<clipPath id="SVGID_18_">
						<use xlink:href="#SVGID_17_"  style="overflow:visible;"/>
					</clipPath>
					<path class="st8" d="M57.4,258.2c-4.5,0-6.7-2-6.7-5.9c0-3.6,2.6-5.9,6.9-5.9c4.5,0,6.9,2.6,6.9,6.7v5.6c0,4.2-2.4,6.7-6.9,6.7
						c-3.5,0-5.7-1.5-6.7-4.1c-0.2-0.6-0.1-0.9,0.6-1.1l1.4-0.5c0.6-0.3,0.8-0.1,1.1,0.5c0.6,1.4,1.7,2.1,3.6,2.1
						c2.4,0,3.7-1.3,3.7-3.7v-1.1C60.7,257.9,59.3,258.2,57.4,258.2 M57.6,249.5c-2.4,0-3.7,1-3.7,2.9s1,2.9,3.7,2.9
						c2.1,0,3.4-0.4,3.7-0.6v-1.5C61.3,250.8,60,249.5,57.6,249.5"/>
				</g>
				<g>
					<defs>
						<rect id="SVGID_19_" width="307" height="307"/>
					</defs>
					<clipPath id="SVGID_20_">
						<use xlink:href="#SVGID_19_"  style="overflow:visible;"/>
					</clipPath>
					<path class="st9" d="M73.5,258.2c-4.5,0-6.7-2-6.7-5.9c0-3.6,2.6-5.9,6.9-5.9c4.5,0,6.9,2.6,6.9,6.7v5.6c0,4.2-2.4,6.7-6.9,6.7
						c-3.5,0-5.7-1.5-6.7-4.1c-0.2-0.6-0.1-0.9,0.6-1.1l1.4-0.5c0.6-0.3,0.8-0.1,1.1,0.5c0.6,1.4,1.7,2.1,3.6,2.1
						c2.4,0,3.7-1.3,3.7-3.7v-1.1C76.8,257.9,75.5,258.2,73.5,258.2 M73.8,249.5c-2.4,0-3.7,1-3.7,2.9s1,2.9,3.7,2.9
						c2.1,0,3.4-0.4,3.7-0.6v-1.5C77.5,250.8,76.2,249.5,73.8,249.5"/>
				</g>
				<g>
					<defs>
						<rect id="SVGID_21_" width="307" height="307"/>
					</defs>
					<clipPath id="SVGID_22_">
						<use xlink:href="#SVGID_21_"  style="overflow:visible;"/>
					</clipPath>
					<path class="st10" d="M228.3,30.3h-89.1C118,30.3,99.9,44,93.4,63.1C79.2,67.9,68,79.2,63.1,93.4C44,99.9,30.3,118,30.3,139.2
						v133.7c0,2.1,1.7,3.8,3.8,3.8c2.1,0,3.8-1.7,3.8-3.8v-85.3h155.9c5,0,9.9-0.8,14.6-2.2v23.1h-15.1c-6.9,0-13.4,2.7-18.2,7.5
						l-14.5,14.5c-2.7,2.7-3.5,6.7-2,10.2c1.4,3.5,4.8,5.8,8.6,5.8H198c3.6,0,7.1-0.4,10.4-1.1V273c0,2.1,1.7,3.8,3.8,3.8
						s3.8-1.7,3.8-3.8v-30c13-5.3,23.2-16,27.7-29.3c19.1-6.5,32.8-24.6,32.8-45.8V78.7C276.7,52,255,30.3,228.3,30.3 M91.2,72.3
						c-0.3,2.1-0.4,4.2-0.4,6.4c0,4.2,0.5,8.3,1.5,12.1H78.7c-2.2,0-4.3,0.2-6.4,0.4C76.3,83,83,76.3,91.2,72.3 M139.2,127.1h67.4
						c1.2,3.8,1.8,7.9,1.8,12.1v10.4h-99.5c-22.5,0-40.7-18.3-40.7-40.7c0-3.2,0.4-6.3,1.1-9.3c3-0.7,6.1-1.1,9.4-1.1h16.4
						C102.7,115.3,119.6,127.1,139.2,127.1 M103.7,98.5h64.1c15.3,0,28.6,8.4,35.5,20.9h-64.1C124,119.4,110.6,110.9,103.7,98.5
						 M193.9,179.9H38v-40.7c0-16.1,9.4-30.1,23-36.7c-0.3,2.1-0.4,4.2-0.4,6.4c0,26.7,21.7,48.4,48.4,48.4h99.6v19.9
						C203.9,179,199,179.9,193.9,179.9 M216.2,157.3h17.2L222.7,168c-2,2-4.2,3.8-6.5,5.3V157.3z M198.1,238.8h-30.8
						c-1,0-1.4-0.6-1.5-1c-0.2-0.4-0.3-1.1,0.4-1.8l14.5-14.5c3.4-3.4,8-5.3,12.8-5.3h15.1v21.2
						C205.2,238.3,201.7,238.8,198.1,238.8 M216.2,234.5v-18.3h12.1c2.2,0,4.3-0.1,6.4-0.4C230.8,223.9,224.2,230.5,216.2,234.5
						 M238.8,198.1c0,3.2-0.4,6.4-1.1,9.4c-3,0.7-6.1,1.1-9.4,1.1h-12.1v-26.3c4.3-2.3,8.4-5.2,11.9-8.7l10.7-10.7L238.8,198.1
						L238.8,198.1z M238.8,149.7h-22.6v-10.4c0-4.2-0.5-8.3-1.5-12.1h24.1V149.7z M238.8,119.4H212c-7.6-16.8-24.5-28.6-44.1-28.6
						h-67.6c-1.2-3.8-1.8-7.9-1.8-12.1c0-3.2,0.4-6.4,1.1-9.4c3-0.7,6.1-1.1,9.4-1.1h89.1c22.5,0,40.7,18.3,40.7,40.7V119.4z
						 M269,167.8c0,16.1-9.4,30.1-23,36.7c0.3-2.1,0.4-4.2,0.4-6.4v-44.5v-0.1v-26.4H269V167.8z M269,119.4h-22.6v-10.5
						c0-26.7-21.7-48.4-48.4-48.4h-89.1c-2.2,0-4.3,0.1-6.4,0.4c6.6-13.6,20.6-23,36.7-23h89.1c22.5,0,40.7,18.3,40.7,40.7V119.4
						L269,119.4z"/>
				</g>
			</g>
		</g>
	</g>
</g>
</svg>
