<?xml version="1.0" encoding="utf-8"?>
<!-- Generator: Adobe Illustrator 23.0.1, SVG Export Plug-In . SVG Version: 6.00 Build 0)  -->
<svg version="1.1" id="Layer_1" xmlns="http://www.w3.org/2000/svg" xmlns:xlink="http://www.w3.org/1999/xlink" x="0px" y="0px"
	 viewBox="0 0 763.9 223" style="enable-background:new 0 0 763.9 223;" xml:space="preserve">
<style type="text/css">
	.st0{fill:#FFD600;}
	.st1{fill:#005693;}
</style>
<g>
	<polygon class="st0" points="137.5,78.2 137.5,0 98.5,0 98.5,78.2 0,78.2 0,117.1 0,117.2 98.5,117.2 98.5,196 137.5,196 
		137.5,117.2 312.8,117.2 312.8,78.2 	"/>
	<polygon class="st1" points="0,117.2 0,117.1 0,196 98.5,196 98.5,117.2 	"/>
	<line class="st1" x1="98.5" y1="0" x2="98.5" y2="0"/>
	<rect class="st1" width="98.5" height="78.2"/>
	<rect x="137.5" y="117.1" class="st1" width="175.2" height="78.9"/>
	<rect x="137.5" class="st1" width="175.3" height="78.2"/>
	<path class="st1" d="M364,31.4c-6.4-2.6-11.3-6.4-11.3-14.5c0-10.6,8.2-16.9,18.5-16.9c10.4,0,17.4,6.6,17.6,17.6l-8.1,1.9
		c-0.8-7.5-4.3-10.9-9.6-10.9c-4.6,0-9.1,2.6-9.1,7.5c0,5,4.5,6.8,8,8.2l8.4,3.3c7.4,2.9,12.4,6.9,12.4,15.3
		c0,10.9-8.6,17.1-19.5,17.1c-11.7,0-20.2-7.1-20.3-19l8.1-1.7c1,7.6,4.7,12.2,12,12.2c5.1,0,10.3-2.1,10.3-7.9c0-5.4-4.6-7-9.4-8.9
		L364,31.4z"/>
	<path class="st1" d="M424,59.4l-6.6-20.9l-6.6,20.9h-8.5l-10.5-42h8.5l7.5,28.3l6.7-22.7h5.7l6.7,22.7l7.5-28.3h8.4l-10.4,42H424z"
		/>
	<path class="st1" d="M452.1,41.3c1,8.7,5.8,10.3,9.7,10.3c3.9,0,7.4-1.7,9.8-5.2l7.6,2c-2.2,7-8.7,11.5-17.2,11.5
		c-9.7,0-19-5.7-19-21.4c0-15.9,9.5-21.6,18.7-21.6c9.2,0,18.6,5.7,18.6,21.5v2.8H452.1z M471.1,34.3c-1.2-7.5-5.6-9-9.1-9
		c-4.1,0-8.3,2.2-9.8,9H471.1z"/>
	<path class="st1" d="M513.7,59.4l-0.3-3.8c-3.8,3.3-7,4.3-10.4,4.3c-8.4,0-18.1-5.7-18.1-21.5c0-15.7,9.8-21.4,17.9-21.4
		c3.8,0,6.9,1.2,10.4,4.2V0.5h8.8v58.9H513.7z M513.1,35.6c-1.1-7.3-5.3-10.3-10-10.3c-4.1,0-9.4,2.2-9.4,13.2
		c0,10.8,5.2,13.2,9.5,13.2c4,0,8.8-2,9.9-8.7V35.6z"/>
	<path class="st1" d="M536.5,41.3c1,8.7,5.8,10.3,9.7,10.3c3.9,0,7.4-1.7,9.8-5.2l7.6,2c-2.2,7-8.7,11.5-17.2,11.5
		c-9.7,0-19-5.7-19-21.4c0-15.9,9.5-21.6,18.7-21.6c9.2,0,18.6,5.7,18.6,21.5v2.8H536.5z M555.5,34.3c-1.2-7.5-5.6-9-9.1-9
		c-4.1,0-8.3,2.2-9.8,9H555.5z"/>
	<path class="st1" d="M594.2,59.4V35.2c0-8.3-4.1-9.9-7.1-9.9c-3.2,0-7.2,1.9-8.2,8v26.2h-8.8v-42h8.1l0.2,3.5c3.4-2.8,6.4-4,9.7-4
		c6.6,0,14.8,4.6,14.8,17.5v25H594.2z"/>
	<path class="st1" d="M370.2,148.8c-10.4-4.2-18.3-10.4-18.3-23.6c0-17.3,13.4-27.5,30.1-27.5c17,0,28.3,10.8,28.6,28.6l-13.2,3.1
		c-1.3-12.3-7-17.8-15.6-17.8c-7.6,0-14.8,4.2-14.8,12.3c0,8.1,7.3,11.1,13.1,13.4l13.6,5.4c12,4.7,20.2,11.2,20.2,25
		c0,17.8-14,27.8-31.7,27.8c-19,0-32.9-11.6-33.1-31l13.2-2.7c1.6,12.4,7.7,19.8,19.6,19.8c8.2,0,16.9-3.5,16.9-12.9
		c0-8.8-7.4-11.3-15.4-14.4L370.2,148.8z"/>
	<path class="st1" d="M492.9,165c1.6,14.2,9.4,16.9,15.8,16.9c6.3,0,12-2.7,15.9-8.5l12.4,3.2c-3.6,11.5-14.2,18.7-28.1,18.7
		c-15.8,0-30.9-9.3-30.9-34.8c0-25.9,15.5-35.2,30.5-35.2c15,0,30.4,9.3,30.4,35.1v4.6H492.9z M523.8,153.5
		c-2-12.3-9.2-14.7-14.8-14.7c-6.6,0-13.5,3.5-15.9,14.7H523.8z"/>
	<path class="st1" d="M590.1,194.5v-13.1h13.8v-42.2h-13.8v-13.1h27.8v55.3h13.8v13.1H590.1z M610.7,117.3c-5.3,0-9.4-4.5-9.4-10
		c0-5.7,4.2-10.1,9.4-10.1c5.4,0,9.7,4.4,9.7,10.1C620.4,112.9,616.1,117.3,610.7,117.3z"/>
	<path class="st1" d="M680,188.6c-6.3,5.5-11.6,6.7-16.6,6.7c-13.6,0-29.5-9.3-29.5-35.1c0-25.6,15.9-34.9,29.4-34.9
		c6.1,0,11.1,1.9,17.1,7.2l0.4-6.3h13.5v68.4c0,16.3-11.6,28.5-29.8,28.5c-14,0-24.4-7-27.8-18.8l12.4-3.2c3.9,5.8,9.6,8.5,15.9,8.5
		c9.6,0,15-5.9,15-15V188.6z M680,155.6c-1.8-11.9-8.6-16.9-16.3-16.9c-6.6,0-15.2,3.8-15.2,21.6c0,17.7,8.5,21.4,15.5,21.4
		c6.5,0,14.3-3.2,16.1-14.2V155.6z"/>
	<path class="st1" d="M717.9,165c1.6,14.2,9.5,16.9,15.8,16.9c6.3,0,12-2.7,15.9-8.5l12.4,3.2c-3.6,11.5-14.2,18.7-28.1,18.7
		c-15.8,0-30.9-9.3-30.9-34.8c0-25.9,15.5-35.2,30.5-35.2c15,0,30.3,9.3,30.3,35.1v4.6H717.9z M748.8,153.5
		c-2-12.3-9.2-14.7-14.8-14.7c-6.6,0-13.5,3.5-15.9,14.7H748.8z"/>
	<path class="st1" d="M584.2,126.2c-2.6-0.7-5.1-0.9-6.6-0.9c-5.4,0-11.2,3.5-16.3,8.6l-0.5-7.8h-13.4v68.4h14.3V155
		c1.9-10.9,8.5-14.6,14.6-14.6c2,0,4.5,0.4,8,1.1V126.2z"/>
	<path class="st1" d="M439.7,194.5l-24.3-68.4h14.8l16.5,48.7l16.5-48.7H478l-24.3,68.4H439.7z"/>
</g>
</svg>
